%TF.GenerationSoftware,KiCad,Pcbnew,6.0.7-f9a2dced07~116~ubuntu22.04.1*%
%TF.CreationDate,2022-08-25T19:52:29+02:00*%
%TF.ProjectId,cortex_debug_adapter,636f7274-6578-45f6-9465-6275675f6164,rev?*%
%TF.SameCoordinates,Original*%
%TF.FileFunction,Copper,L1,Top*%
%TF.FilePolarity,Positive*%
%FSLAX46Y46*%
G04 Gerber Fmt 4.6, Leading zero omitted, Abs format (unit mm)*
G04 Created by KiCad (PCBNEW 6.0.7-f9a2dced07~116~ubuntu22.04.1) date 2022-08-25 19:52:29*
%MOMM*%
%LPD*%
G01*
G04 APERTURE LIST*
%TA.AperFunction,ComponentPad*%
%ADD10R,1.700000X1.700000*%
%TD*%
%TA.AperFunction,ComponentPad*%
%ADD11O,1.700000X1.700000*%
%TD*%
%TA.AperFunction,ComponentPad*%
%ADD12R,1.000000X1.000000*%
%TD*%
%TA.AperFunction,ComponentPad*%
%ADD13O,1.000000X1.000000*%
%TD*%
%TA.AperFunction,ViaPad*%
%ADD14C,0.800000*%
%TD*%
%TA.AperFunction,Conductor*%
%ADD15C,0.300000*%
%TD*%
%TA.AperFunction,Conductor*%
%ADD16C,0.500000*%
%TD*%
G04 APERTURE END LIST*
D10*
%TO.P,J2,1,Pin_1*%
%TO.N,VCC*%
X160800000Y-108202500D03*
D11*
%TO.P,J2,2,Pin_2*%
%TO.N,GND*%
X160800000Y-105662500D03*
%TO.P,J2,3,Pin_3*%
%TO.N,/TMS{slash}SWDIO*%
X160800000Y-103122500D03*
%TO.P,J2,4,Pin_4*%
%TO.N,/TCLK{slash}SWCLK*%
X160800000Y-100582500D03*
%TO.P,J2,5,Pin_5*%
%TO.N,/TDO{slash}SWO*%
X160800000Y-98042500D03*
%TO.P,J2,6,Pin_6*%
%TO.N,/TDI*%
X160800000Y-95502500D03*
%TO.P,J2,7,Pin_7*%
%TO.N,/RESET*%
X160800000Y-92962500D03*
%TD*%
D12*
%TO.P,J1,1,Pin_1*%
%TO.N,VCC*%
X148275000Y-103117500D03*
D13*
%TO.P,J1,2,Pin_2*%
%TO.N,/TMS{slash}SWDIO*%
X147005000Y-103117500D03*
%TO.P,J1,3,Pin_3*%
%TO.N,GND*%
X148275000Y-101847500D03*
%TO.P,J1,4,Pin_4*%
%TO.N,/TCLK{slash}SWCLK*%
X147005000Y-101847500D03*
%TO.P,J1,5,Pin_5*%
%TO.N,GND*%
X148275000Y-100577500D03*
%TO.P,J1,6,Pin_6*%
%TO.N,/TDO{slash}SWO*%
X147005000Y-100577500D03*
%TO.P,J1,7,Pin_7*%
%TO.N,unconnected-(J1-Pad7)*%
X148275000Y-99307500D03*
%TO.P,J1,8,Pin_8*%
%TO.N,/TDI*%
X147005000Y-99307500D03*
%TO.P,J1,9,Pin_9*%
%TO.N,GND*%
X148275000Y-98037500D03*
%TO.P,J1,10,Pin_10*%
%TO.N,/RESET*%
X147005000Y-98037500D03*
%TD*%
D14*
%TO.N,/TDO{slash}SWO*%
X145750000Y-99150000D03*
%TO.N,/TCLK{slash}SWCLK*%
X149200000Y-105600000D03*
%TO.N,/TDI*%
X159000000Y-96500000D03*
X156600000Y-95600000D03*
%TO.N,/TDO{slash}SWO*%
X150600000Y-98000000D03*
%TO.N,/TCLK{slash}SWCLK*%
X151600000Y-102150000D03*
%TO.N,/TMS{slash}SWDIO*%
X150800000Y-104200000D03*
X147000000Y-104400000D03*
%TD*%
D15*
%TO.N,/TDO{slash}SWO*%
X145750000Y-99322500D02*
X145750000Y-99150000D01*
X147005000Y-100577500D02*
X145750000Y-99322500D01*
%TO.N,/TCLK{slash}SWCLK*%
X149200000Y-105600000D02*
X147000000Y-105600000D01*
X145649500Y-104249500D02*
X145649500Y-102150000D01*
X147000000Y-105600000D02*
X145649500Y-104249500D01*
X145649500Y-102150000D02*
X145952000Y-101847500D01*
X145952000Y-101847500D02*
X147005000Y-101847500D01*
X151600000Y-102150000D02*
X159232500Y-102150000D01*
X159232500Y-102150000D02*
X160800000Y-100582500D01*
%TO.N,/TMS{slash}SWDIO*%
X150800000Y-104200000D02*
X159722500Y-104200000D01*
X159722500Y-104200000D02*
X160800000Y-103122500D01*
%TO.N,/TDI*%
X159000000Y-96500000D02*
X159802500Y-96500000D01*
X159802500Y-96500000D02*
X160800000Y-95502500D01*
X146100000Y-98402500D02*
X147005000Y-99307500D01*
X156600000Y-95600000D02*
X156400000Y-95800000D01*
X156400000Y-95800000D02*
X146800000Y-95800000D01*
X146800000Y-95800000D02*
X146100000Y-96500000D01*
X146100000Y-96500000D02*
X146100000Y-98402500D01*
%TO.N,/TDO{slash}SWO*%
X150600000Y-98000000D02*
X150642500Y-98042500D01*
X150642500Y-98042500D02*
X160800000Y-98042500D01*
%TO.N,/RESET*%
X156762500Y-97000000D02*
X160800000Y-92962500D01*
X148042500Y-97000000D02*
X156762500Y-97000000D01*
%TO.N,/TMS{slash}SWDIO*%
X147005000Y-103117500D02*
X147005000Y-104395000D01*
X147005000Y-104395000D02*
X147000000Y-104400000D01*
D16*
%TO.N,VCC*%
X148275000Y-103117500D02*
X153360000Y-108202500D01*
X153360000Y-108202500D02*
X160800000Y-108202500D01*
D15*
%TO.N,/RESET*%
X147005000Y-98037500D02*
X148042500Y-97000000D01*
%TD*%
M02*
