M48
; DRILL file {KiCad 6.0.7-f9a2dced07~116~ubuntu22.04.1} date Čt 25. srpna 2022, 19:52:29
; FORMAT={-:-/ absolute / inch / decimal}
; #@! TF.CreationDate,2022-08-25T19:52:29+02:00
; #@! TF.GenerationSoftware,Kicad,Pcbnew,6.0.7-f9a2dced07~116~ubuntu22.04.1
; #@! TF.FileFunction,Plated,1,2,PTH
FMAT,2
INCH
; #@! TA.AperFunction,Plated,PTH,ViaDrill
T1C0.0157
; #@! TA.AperFunction,Plated,PTH,ComponentDrill
T2C0.0276
; #@! TA.AperFunction,Plated,PTH,ComponentDrill
T3C0.0394
%
G90
G05
T1
X5.7382Y-3.9035
X5.7874Y-4.1102
X5.874Y-4.1575
X5.9291Y-3.8583
X5.937Y-4.1024
X5.9685Y-4.0217
X6.1654Y-3.7638
X6.2598Y-3.7992
T2
X5.7876Y-3.8597
X5.7876Y-3.9097
X5.7876Y-3.9597
X5.7876Y-4.0097
X5.7876Y-4.0597
X5.8376Y-3.8597
X5.8376Y-3.9097
X5.8376Y-3.9597
X5.8376Y-4.0097
X5.8376Y-4.0597
T3
X6.3307Y-3.6599
X6.3307Y-3.7599
X6.3307Y-3.8599
X6.3307Y-3.9599
X6.3307Y-4.0599
X6.3307Y-4.1599
X6.3307Y-4.2599
T0
M30
