%TF.GenerationSoftware,KiCad,Pcbnew,6.0.7-f9a2dced07~116~ubuntu22.04.1*%
%TF.CreationDate,2022-08-25T19:52:29+02:00*%
%TF.ProjectId,cortex_debug_adapter,636f7274-6578-45f6-9465-6275675f6164,rev?*%
%TF.SameCoordinates,Original*%
%TF.FileFunction,Copper,L2,Bot*%
%TF.FilePolarity,Positive*%
%FSLAX46Y46*%
G04 Gerber Fmt 4.6, Leading zero omitted, Abs format (unit mm)*
G04 Created by KiCad (PCBNEW 6.0.7-f9a2dced07~116~ubuntu22.04.1) date 2022-08-25 19:52:29*
%MOMM*%
%LPD*%
G01*
G04 APERTURE LIST*
%TA.AperFunction,ComponentPad*%
%ADD10R,1.700000X1.700000*%
%TD*%
%TA.AperFunction,ComponentPad*%
%ADD11O,1.700000X1.700000*%
%TD*%
%TA.AperFunction,ComponentPad*%
%ADD12R,1.000000X1.000000*%
%TD*%
%TA.AperFunction,ComponentPad*%
%ADD13O,1.000000X1.000000*%
%TD*%
%TA.AperFunction,ViaPad*%
%ADD14C,0.800000*%
%TD*%
%TA.AperFunction,Conductor*%
%ADD15C,0.300000*%
%TD*%
G04 APERTURE END LIST*
D10*
%TO.P,J2,1,Pin_1*%
%TO.N,VCC*%
X160800000Y-108202500D03*
D11*
%TO.P,J2,2,Pin_2*%
%TO.N,GND*%
X160800000Y-105662500D03*
%TO.P,J2,3,Pin_3*%
%TO.N,/TMS{slash}SWDIO*%
X160800000Y-103122500D03*
%TO.P,J2,4,Pin_4*%
%TO.N,/TCLK{slash}SWCLK*%
X160800000Y-100582500D03*
%TO.P,J2,5,Pin_5*%
%TO.N,/TDO{slash}SWO*%
X160800000Y-98042500D03*
%TO.P,J2,6,Pin_6*%
%TO.N,/TDI*%
X160800000Y-95502500D03*
%TO.P,J2,7,Pin_7*%
%TO.N,/RESET*%
X160800000Y-92962500D03*
%TD*%
D12*
%TO.P,J1,1,Pin_1*%
%TO.N,VCC*%
X148275000Y-103117500D03*
D13*
%TO.P,J1,2,Pin_2*%
%TO.N,/TMS{slash}SWDIO*%
X147005000Y-103117500D03*
%TO.P,J1,3,Pin_3*%
%TO.N,GND*%
X148275000Y-101847500D03*
%TO.P,J1,4,Pin_4*%
%TO.N,/TCLK{slash}SWCLK*%
X147005000Y-101847500D03*
%TO.P,J1,5,Pin_5*%
%TO.N,GND*%
X148275000Y-100577500D03*
%TO.P,J1,6,Pin_6*%
%TO.N,/TDO{slash}SWO*%
X147005000Y-100577500D03*
%TO.P,J1,7,Pin_7*%
%TO.N,unconnected-(J1-Pad7)*%
X148275000Y-99307500D03*
%TO.P,J1,8,Pin_8*%
%TO.N,/TDI*%
X147005000Y-99307500D03*
%TO.P,J1,9,Pin_9*%
%TO.N,GND*%
X148275000Y-98037500D03*
%TO.P,J1,10,Pin_10*%
%TO.N,/RESET*%
X147005000Y-98037500D03*
%TD*%
D14*
%TO.N,/TDO{slash}SWO*%
X145750000Y-99150000D03*
%TO.N,/TCLK{slash}SWCLK*%
X149200000Y-105600000D03*
%TO.N,/TDI*%
X159000000Y-96500000D03*
X156600000Y-95600000D03*
%TO.N,/TDO{slash}SWO*%
X150600000Y-98000000D03*
%TO.N,/TCLK{slash}SWCLK*%
X151600000Y-102150000D03*
%TO.N,/TMS{slash}SWDIO*%
X150800000Y-104200000D03*
X147000000Y-104400000D03*
%TD*%
D15*
%TO.N,/TDO{slash}SWO*%
X145750000Y-99150000D02*
X145750000Y-97750000D01*
X145750000Y-97750000D02*
X146900000Y-96600000D01*
%TO.N,/TCLK{slash}SWCLK*%
X150500000Y-105600000D02*
X151600000Y-104500000D01*
X151600000Y-104500000D02*
X151600000Y-102150000D01*
X149200000Y-105600000D02*
X150500000Y-105600000D01*
%TO.N,/TDI*%
X159000000Y-96500000D02*
X158100000Y-95600000D01*
X158100000Y-95600000D02*
X156600000Y-95600000D01*
%TO.N,/TDO{slash}SWO*%
X146900000Y-96600000D02*
X149200000Y-96600000D01*
X149200000Y-96600000D02*
X150600000Y-98000000D01*
%TO.N,/TMS{slash}SWDIO*%
X147000000Y-104400000D02*
X147200000Y-104200000D01*
X147200000Y-104200000D02*
X150800000Y-104200000D01*
%TD*%
%TA.AperFunction,Conductor*%
%TO.N,GND*%
G36*
X160204078Y-91528502D02*
G01*
X160250571Y-91582158D01*
X160260675Y-91652432D01*
X160231181Y-91717012D01*
X160194137Y-91746263D01*
X160073607Y-91809007D01*
X160069474Y-91812110D01*
X160069471Y-91812112D01*
X159899100Y-91940030D01*
X159894965Y-91943135D01*
X159838112Y-92002628D01*
X159789737Y-92053250D01*
X159740629Y-92104638D01*
X159614743Y-92289180D01*
X159520688Y-92491805D01*
X159460989Y-92707070D01*
X159437251Y-92929195D01*
X159437548Y-92934348D01*
X159437548Y-92934351D01*
X159443011Y-93029090D01*
X159450110Y-93152215D01*
X159451247Y-93157261D01*
X159451248Y-93157267D01*
X159471119Y-93245439D01*
X159499222Y-93370139D01*
X159583266Y-93577116D01*
X159699987Y-93767588D01*
X159846250Y-93936438D01*
X160018126Y-94079132D01*
X160088595Y-94120311D01*
X160091445Y-94121976D01*
X160140169Y-94173614D01*
X160153240Y-94243397D01*
X160126509Y-94309169D01*
X160086055Y-94342527D01*
X160073607Y-94349007D01*
X160069474Y-94352110D01*
X160069471Y-94352112D01*
X160045247Y-94370300D01*
X159894965Y-94483135D01*
X159740629Y-94644638D01*
X159614743Y-94829180D01*
X159599003Y-94863090D01*
X159531743Y-95007990D01*
X159520688Y-95031805D01*
X159460989Y-95247070D01*
X159437251Y-95469195D01*
X159437548Y-95474348D01*
X159437548Y-95474353D01*
X159439159Y-95502295D01*
X159423111Y-95571454D01*
X159372220Y-95620957D01*
X159302644Y-95635089D01*
X159282336Y-95630978D01*
X159282288Y-95631206D01*
X159101944Y-95592872D01*
X159101939Y-95592872D01*
X159095487Y-95591500D01*
X159074950Y-95591500D01*
X159006829Y-95571498D01*
X158985855Y-95554595D01*
X158623657Y-95192397D01*
X158615668Y-95183618D01*
X158615663Y-95183612D01*
X158611416Y-95176920D01*
X158559741Y-95128394D01*
X158556900Y-95125640D01*
X158536333Y-95105073D01*
X158532826Y-95102353D01*
X158523804Y-95094647D01*
X158495913Y-95068456D01*
X158490133Y-95063028D01*
X158481813Y-95058454D01*
X158471342Y-95052697D01*
X158454818Y-95041843D01*
X158444132Y-95033555D01*
X158437868Y-95028696D01*
X158430596Y-95025549D01*
X158430594Y-95025548D01*
X158395465Y-95010346D01*
X158384805Y-95005124D01*
X158351284Y-94986695D01*
X158351282Y-94986694D01*
X158344337Y-94982876D01*
X158323559Y-94977541D01*
X158304869Y-94971142D01*
X158285176Y-94962620D01*
X158239552Y-94955394D01*
X158227929Y-94952987D01*
X158199928Y-94945798D01*
X158183188Y-94941500D01*
X158161741Y-94941500D01*
X158142031Y-94939949D01*
X158128677Y-94937834D01*
X158120848Y-94936594D01*
X158074859Y-94940941D01*
X158063004Y-94941500D01*
X157280224Y-94941500D01*
X157212103Y-94921498D01*
X157206163Y-94917436D01*
X157205909Y-94917251D01*
X157056752Y-94808882D01*
X157050724Y-94806198D01*
X157050722Y-94806197D01*
X156888319Y-94733891D01*
X156888318Y-94733891D01*
X156882288Y-94731206D01*
X156788887Y-94711353D01*
X156701944Y-94692872D01*
X156701939Y-94692872D01*
X156695487Y-94691500D01*
X156504513Y-94691500D01*
X156498061Y-94692872D01*
X156498056Y-94692872D01*
X156411112Y-94711353D01*
X156317712Y-94731206D01*
X156311682Y-94733891D01*
X156311681Y-94733891D01*
X156149278Y-94806197D01*
X156149276Y-94806198D01*
X156143248Y-94808882D01*
X155988747Y-94921134D01*
X155984326Y-94926044D01*
X155984325Y-94926045D01*
X155874589Y-95047920D01*
X155860960Y-95063056D01*
X155765473Y-95228444D01*
X155706458Y-95410072D01*
X155705768Y-95416633D01*
X155705768Y-95416635D01*
X155696390Y-95505865D01*
X155686496Y-95600000D01*
X155706458Y-95789928D01*
X155765473Y-95971556D01*
X155768776Y-95977278D01*
X155768777Y-95977279D01*
X155785832Y-96006819D01*
X155860960Y-96136944D01*
X155865378Y-96141851D01*
X155865379Y-96141852D01*
X155902983Y-96183615D01*
X155988747Y-96278866D01*
X156011511Y-96295405D01*
X156136189Y-96385989D01*
X156143248Y-96391118D01*
X156149276Y-96393802D01*
X156149278Y-96393803D01*
X156311681Y-96466109D01*
X156317712Y-96468794D01*
X156409433Y-96488290D01*
X156498056Y-96507128D01*
X156498061Y-96507128D01*
X156504513Y-96508500D01*
X156695487Y-96508500D01*
X156701939Y-96507128D01*
X156701944Y-96507128D01*
X156790567Y-96488290D01*
X156882288Y-96468794D01*
X156888319Y-96466109D01*
X157050722Y-96393803D01*
X157050724Y-96393802D01*
X157056752Y-96391118D01*
X157063812Y-96385989D01*
X157188489Y-96295405D01*
X157206163Y-96282564D01*
X157273031Y-96258706D01*
X157280224Y-96258500D01*
X157775050Y-96258500D01*
X157843171Y-96278502D01*
X157864145Y-96295405D01*
X158057030Y-96488290D01*
X158091056Y-96550602D01*
X158093245Y-96564214D01*
X158104512Y-96671409D01*
X158106458Y-96689928D01*
X158108498Y-96696205D01*
X158108498Y-96696207D01*
X158130662Y-96764421D01*
X158165473Y-96871556D01*
X158168776Y-96877278D01*
X158168777Y-96877279D01*
X158172829Y-96884297D01*
X158260960Y-97036944D01*
X158265378Y-97041851D01*
X158265379Y-97041852D01*
X158310082Y-97091500D01*
X158388747Y-97178866D01*
X158543248Y-97291118D01*
X158549276Y-97293802D01*
X158549278Y-97293803D01*
X158651905Y-97339495D01*
X158717712Y-97368794D01*
X158811113Y-97388647D01*
X158898056Y-97407128D01*
X158898061Y-97407128D01*
X158904513Y-97408500D01*
X159095487Y-97408500D01*
X159101939Y-97407128D01*
X159101944Y-97407128D01*
X159188887Y-97388647D01*
X159282288Y-97368794D01*
X159394525Y-97318823D01*
X159464892Y-97309389D01*
X159529189Y-97339495D01*
X159567003Y-97399584D01*
X159566327Y-97470578D01*
X159560062Y-97486980D01*
X159520688Y-97571805D01*
X159460989Y-97787070D01*
X159437251Y-98009195D01*
X159437548Y-98014348D01*
X159437548Y-98014351D01*
X159443011Y-98109090D01*
X159450110Y-98232215D01*
X159451247Y-98237261D01*
X159451248Y-98237267D01*
X159468106Y-98312070D01*
X159499222Y-98450139D01*
X159583266Y-98657116D01*
X159598974Y-98682749D01*
X159667028Y-98793803D01*
X159699987Y-98847588D01*
X159846250Y-99016438D01*
X160018126Y-99159132D01*
X160088595Y-99200311D01*
X160091445Y-99201976D01*
X160140169Y-99253614D01*
X160153240Y-99323397D01*
X160126509Y-99389169D01*
X160086055Y-99422527D01*
X160073607Y-99429007D01*
X160069474Y-99432110D01*
X160069471Y-99432112D01*
X159899100Y-99560030D01*
X159894965Y-99563135D01*
X159740629Y-99724638D01*
X159614743Y-99909180D01*
X159520688Y-100111805D01*
X159460989Y-100327070D01*
X159437251Y-100549195D01*
X159437548Y-100554348D01*
X159437548Y-100554351D01*
X159443011Y-100649090D01*
X159450110Y-100772215D01*
X159451247Y-100777261D01*
X159451248Y-100777267D01*
X159471119Y-100865439D01*
X159499222Y-100990139D01*
X159583266Y-101197116D01*
X159611305Y-101242872D01*
X159680751Y-101356197D01*
X159699987Y-101387588D01*
X159846250Y-101556438D01*
X160018126Y-101699132D01*
X160088595Y-101740311D01*
X160091445Y-101741976D01*
X160140169Y-101793614D01*
X160153240Y-101863397D01*
X160126509Y-101929169D01*
X160086055Y-101962527D01*
X160073607Y-101969007D01*
X160069474Y-101972110D01*
X160069471Y-101972112D01*
X159899100Y-102100030D01*
X159894965Y-102103135D01*
X159891393Y-102106873D01*
X159750567Y-102254239D01*
X159740629Y-102264638D01*
X159614743Y-102449180D01*
X159520688Y-102651805D01*
X159460989Y-102867070D01*
X159437251Y-103089195D01*
X159437548Y-103094348D01*
X159437548Y-103094351D01*
X159449772Y-103306358D01*
X159450110Y-103312215D01*
X159451247Y-103317261D01*
X159451248Y-103317267D01*
X159454995Y-103333891D01*
X159499222Y-103530139D01*
X159583266Y-103737116D01*
X159699987Y-103927588D01*
X159846250Y-104096438D01*
X160018126Y-104239132D01*
X160091955Y-104282274D01*
X160140679Y-104333912D01*
X160153750Y-104403695D01*
X160127019Y-104469467D01*
X160086562Y-104502827D01*
X160078457Y-104507046D01*
X160069738Y-104512536D01*
X159899433Y-104640405D01*
X159891726Y-104647248D01*
X159744590Y-104801217D01*
X159738104Y-104809227D01*
X159618098Y-104985149D01*
X159613000Y-104994123D01*
X159523338Y-105187283D01*
X159519775Y-105196970D01*
X159464389Y-105396683D01*
X159465912Y-105405107D01*
X159478292Y-105408500D01*
X162118344Y-105408500D01*
X162131875Y-105404527D01*
X162133180Y-105395447D01*
X162091214Y-105228375D01*
X162087894Y-105218624D01*
X162002972Y-105023314D01*
X161998105Y-105014239D01*
X161882426Y-104835426D01*
X161876136Y-104827257D01*
X161732806Y-104669740D01*
X161725273Y-104662715D01*
X161558139Y-104530722D01*
X161549556Y-104525020D01*
X161512602Y-104504620D01*
X161462631Y-104454187D01*
X161447859Y-104384745D01*
X161472975Y-104318339D01*
X161500327Y-104291732D01*
X161523797Y-104274991D01*
X161679860Y-104163673D01*
X161838096Y-104005989D01*
X161897594Y-103923189D01*
X161965435Y-103828777D01*
X161968453Y-103824577D01*
X161999937Y-103760875D01*
X162065136Y-103628953D01*
X162065137Y-103628951D01*
X162067430Y-103624311D01*
X162132370Y-103410569D01*
X162161529Y-103189090D01*
X162161611Y-103185740D01*
X162163074Y-103125865D01*
X162163074Y-103125861D01*
X162163156Y-103122500D01*
X162144852Y-102899861D01*
X162090431Y-102683202D01*
X162001354Y-102478340D01*
X161931780Y-102370795D01*
X161882822Y-102295117D01*
X161882820Y-102295114D01*
X161880014Y-102290777D01*
X161729670Y-102125551D01*
X161725619Y-102122352D01*
X161725615Y-102122348D01*
X161558414Y-101990300D01*
X161558410Y-101990298D01*
X161554359Y-101987098D01*
X161513053Y-101964296D01*
X161463084Y-101913864D01*
X161448312Y-101844421D01*
X161473428Y-101778016D01*
X161500780Y-101751409D01*
X161544603Y-101720150D01*
X161679860Y-101623673D01*
X161695440Y-101608148D01*
X161834435Y-101469637D01*
X161838096Y-101465989D01*
X161897594Y-101383189D01*
X161965435Y-101288777D01*
X161968453Y-101284577D01*
X162003606Y-101213451D01*
X162065136Y-101088953D01*
X162065137Y-101088951D01*
X162067430Y-101084311D01*
X162132370Y-100870569D01*
X162161529Y-100649090D01*
X162163156Y-100582500D01*
X162144852Y-100359861D01*
X162090431Y-100143202D01*
X162001354Y-99938340D01*
X161880014Y-99750777D01*
X161729670Y-99585551D01*
X161725619Y-99582352D01*
X161725615Y-99582348D01*
X161558414Y-99450300D01*
X161558410Y-99450298D01*
X161554359Y-99447098D01*
X161513053Y-99424296D01*
X161463084Y-99373864D01*
X161448312Y-99304421D01*
X161473428Y-99238016D01*
X161500780Y-99211409D01*
X161544603Y-99180150D01*
X161679860Y-99083673D01*
X161838096Y-98925989D01*
X161845352Y-98915892D01*
X161965435Y-98748777D01*
X161968453Y-98744577D01*
X162003357Y-98673955D01*
X162065136Y-98548953D01*
X162065137Y-98548951D01*
X162067430Y-98544311D01*
X162132370Y-98330569D01*
X162161529Y-98109090D01*
X162162587Y-98065795D01*
X162163074Y-98045865D01*
X162163074Y-98045861D01*
X162163156Y-98042500D01*
X162144852Y-97819861D01*
X162090431Y-97603202D01*
X162001354Y-97398340D01*
X161929478Y-97287237D01*
X161882822Y-97215117D01*
X161882820Y-97215114D01*
X161880014Y-97210777D01*
X161729670Y-97045551D01*
X161725619Y-97042352D01*
X161725615Y-97042348D01*
X161558414Y-96910300D01*
X161558410Y-96910298D01*
X161554359Y-96907098D01*
X161513053Y-96884296D01*
X161463084Y-96833864D01*
X161448312Y-96764421D01*
X161473428Y-96698016D01*
X161500780Y-96671409D01*
X161651062Y-96564214D01*
X161679860Y-96543673D01*
X161703776Y-96519841D01*
X161761209Y-96462607D01*
X161838096Y-96385989D01*
X161968453Y-96204577D01*
X161990222Y-96160532D01*
X162065136Y-96008953D01*
X162065137Y-96008951D01*
X162067430Y-96004311D01*
X162132370Y-95790569D01*
X162161529Y-95569090D01*
X162163156Y-95502500D01*
X162144852Y-95279861D01*
X162090431Y-95063202D01*
X162001354Y-94858340D01*
X161894308Y-94692872D01*
X161882822Y-94675117D01*
X161882820Y-94675114D01*
X161880014Y-94670777D01*
X161729670Y-94505551D01*
X161725619Y-94502352D01*
X161725615Y-94502348D01*
X161558414Y-94370300D01*
X161558410Y-94370298D01*
X161554359Y-94367098D01*
X161513053Y-94344296D01*
X161463084Y-94293864D01*
X161448312Y-94224421D01*
X161473428Y-94158016D01*
X161500780Y-94131409D01*
X161544603Y-94100150D01*
X161679860Y-94003673D01*
X161838096Y-93845989D01*
X161897594Y-93763189D01*
X161965435Y-93668777D01*
X161968453Y-93664577D01*
X162067430Y-93464311D01*
X162132370Y-93250569D01*
X162161529Y-93029090D01*
X162163156Y-92962500D01*
X162144852Y-92739861D01*
X162090431Y-92523202D01*
X162001354Y-92318340D01*
X161880014Y-92130777D01*
X161729670Y-91965551D01*
X161725619Y-91962352D01*
X161725615Y-91962348D01*
X161558414Y-91830300D01*
X161558410Y-91830298D01*
X161554359Y-91827098D01*
X161517260Y-91806618D01*
X161405292Y-91744809D01*
X161355321Y-91694376D01*
X161340549Y-91624933D01*
X161365665Y-91558528D01*
X161422696Y-91516243D01*
X161466185Y-91508500D01*
X163750633Y-91508500D01*
X163770018Y-91510000D01*
X163784852Y-91512310D01*
X163784855Y-91512310D01*
X163793724Y-91513691D01*
X163802626Y-91512527D01*
X163802750Y-91512511D01*
X163833192Y-91512240D01*
X163840621Y-91513077D01*
X163895264Y-91519234D01*
X163922771Y-91525513D01*
X163999853Y-91552485D01*
X164025274Y-91564727D01*
X164094426Y-91608178D01*
X164116485Y-91625770D01*
X164174230Y-91683515D01*
X164191822Y-91705574D01*
X164235273Y-91774726D01*
X164247515Y-91800147D01*
X164274487Y-91877228D01*
X164280766Y-91904736D01*
X164287018Y-91960226D01*
X164286923Y-91975868D01*
X164287800Y-91975879D01*
X164287690Y-91984851D01*
X164286309Y-91993724D01*
X164287473Y-92002626D01*
X164287473Y-92002628D01*
X164290436Y-92025283D01*
X164291500Y-92041621D01*
X164291500Y-109141274D01*
X164289859Y-109161542D01*
X164286366Y-109182974D01*
X164287499Y-109192139D01*
X164287570Y-109222462D01*
X164283404Y-109257519D01*
X164279926Y-109286784D01*
X164273566Y-109314012D01*
X164245462Y-109393297D01*
X164233254Y-109418450D01*
X164231408Y-109421375D01*
X164188357Y-109489583D01*
X164170901Y-109511426D01*
X164111426Y-109570901D01*
X164089583Y-109588357D01*
X164018452Y-109633253D01*
X163993298Y-109645461D01*
X163941650Y-109663769D01*
X163914012Y-109673566D01*
X163886783Y-109679926D01*
X163829055Y-109686786D01*
X163813390Y-109686573D01*
X163813385Y-109687641D01*
X163804404Y-109687595D01*
X163795526Y-109686277D01*
X163785641Y-109687641D01*
X163766247Y-109690317D01*
X163749024Y-109691500D01*
X162023562Y-109691500D01*
X161955441Y-109671498D01*
X161908948Y-109617842D01*
X161898844Y-109547568D01*
X161928338Y-109482988D01*
X161947997Y-109464674D01*
X162006080Y-109421143D01*
X162006081Y-109421142D01*
X162013261Y-109415761D01*
X162100615Y-109299205D01*
X162151745Y-109162816D01*
X162158500Y-109100634D01*
X162158500Y-107304366D01*
X162151745Y-107242184D01*
X162100615Y-107105795D01*
X162013261Y-106989239D01*
X161896705Y-106901885D01*
X161777687Y-106857267D01*
X161720923Y-106814625D01*
X161696223Y-106748064D01*
X161711430Y-106678715D01*
X161732977Y-106650035D01*
X161834052Y-106549312D01*
X161840730Y-106541465D01*
X161965003Y-106368520D01*
X161970313Y-106359683D01*
X162064670Y-106168767D01*
X162068469Y-106159172D01*
X162130377Y-105955410D01*
X162132555Y-105945337D01*
X162133986Y-105934462D01*
X162131775Y-105920278D01*
X162118617Y-105916500D01*
X159483225Y-105916500D01*
X159469694Y-105920473D01*
X159468257Y-105930466D01*
X159498565Y-106064946D01*
X159501645Y-106074775D01*
X159581770Y-106272103D01*
X159586413Y-106281294D01*
X159697694Y-106462888D01*
X159703777Y-106471199D01*
X159843213Y-106632167D01*
X159850577Y-106639379D01*
X159855522Y-106643485D01*
X159895156Y-106702389D01*
X159896653Y-106773370D01*
X159859537Y-106833892D01*
X159819264Y-106858410D01*
X159711705Y-106898732D01*
X159711704Y-106898733D01*
X159703295Y-106901885D01*
X159586739Y-106989239D01*
X159499385Y-107105795D01*
X159448255Y-107242184D01*
X159441500Y-107304366D01*
X159441500Y-109100634D01*
X159448255Y-109162816D01*
X159499385Y-109299205D01*
X159586739Y-109415761D01*
X159593919Y-109421142D01*
X159593920Y-109421143D01*
X159652003Y-109464674D01*
X159694518Y-109521534D01*
X159699544Y-109592352D01*
X159665484Y-109654645D01*
X159603152Y-109688635D01*
X159576438Y-109691500D01*
X146058725Y-109691500D01*
X146038457Y-109689859D01*
X146017025Y-109686366D01*
X146007782Y-109687508D01*
X145977533Y-109687586D01*
X145913630Y-109680025D01*
X145886525Y-109673724D01*
X145807530Y-109645858D01*
X145782466Y-109633756D01*
X145711525Y-109589231D01*
X145689729Y-109571922D01*
X145630294Y-109512908D01*
X145612830Y-109491235D01*
X145567802Y-109420613D01*
X145555521Y-109395632D01*
X145527098Y-109316845D01*
X145520602Y-109289781D01*
X145513426Y-109232615D01*
X145513543Y-109216846D01*
X145512490Y-109216848D01*
X145512473Y-109207873D01*
X145513728Y-109198983D01*
X145509808Y-109171991D01*
X145508500Y-109153882D01*
X145508500Y-100182397D01*
X145528502Y-100114276D01*
X145582158Y-100067783D01*
X145647668Y-100057087D01*
X145648058Y-100057128D01*
X145654513Y-100058500D01*
X145845487Y-100058500D01*
X145851939Y-100057128D01*
X145851944Y-100057128D01*
X145919044Y-100042865D01*
X145989835Y-100048267D01*
X146046467Y-100091084D01*
X146070961Y-100157722D01*
X146065343Y-100204210D01*
X146026370Y-100327070D01*
X146013765Y-100366806D01*
X145993883Y-100544062D01*
X145992729Y-100554351D01*
X145991719Y-100563351D01*
X146008268Y-100760434D01*
X146062783Y-100950550D01*
X146153187Y-101126456D01*
X146157016Y-101131287D01*
X146158839Y-101133588D01*
X146159414Y-101135009D01*
X146160353Y-101136466D01*
X146160076Y-101136644D01*
X146185474Y-101199398D01*
X146172301Y-101269162D01*
X146168846Y-101274974D01*
X146073567Y-101448287D01*
X146071706Y-101454154D01*
X146071705Y-101454156D01*
X146022856Y-101608148D01*
X146013765Y-101636806D01*
X145991719Y-101833351D01*
X145992235Y-101839495D01*
X146004420Y-101984604D01*
X146008268Y-102030434D01*
X146028224Y-102100030D01*
X146044436Y-102156565D01*
X146062783Y-102220550D01*
X146153187Y-102396456D01*
X146157016Y-102401287D01*
X146158839Y-102403588D01*
X146159414Y-102405009D01*
X146160353Y-102406466D01*
X146160076Y-102406644D01*
X146185474Y-102469398D01*
X146172301Y-102539162D01*
X146168846Y-102544974D01*
X146073567Y-102718287D01*
X146071706Y-102724154D01*
X146071705Y-102724156D01*
X146046232Y-102804456D01*
X146013765Y-102906806D01*
X146013079Y-102912925D01*
X145992729Y-103094351D01*
X145991719Y-103103351D01*
X145995472Y-103148046D01*
X146007518Y-103291500D01*
X146008268Y-103300434D01*
X146017092Y-103331206D01*
X146056272Y-103467842D01*
X146062783Y-103490550D01*
X146153187Y-103666456D01*
X146228022Y-103760875D01*
X146254659Y-103826685D01*
X146238395Y-103902139D01*
X146178437Y-104005989D01*
X146165473Y-104028444D01*
X146106458Y-104210072D01*
X146086496Y-104400000D01*
X146087186Y-104406565D01*
X146105750Y-104583188D01*
X146106458Y-104589928D01*
X146165473Y-104771556D01*
X146260960Y-104936944D01*
X146265378Y-104941851D01*
X146265379Y-104941852D01*
X146333075Y-105017036D01*
X146388747Y-105078866D01*
X146543248Y-105191118D01*
X146549276Y-105193802D01*
X146549278Y-105193803D01*
X146641200Y-105234729D01*
X146717712Y-105268794D01*
X146811113Y-105288647D01*
X146898056Y-105307128D01*
X146898061Y-105307128D01*
X146904513Y-105308500D01*
X147095487Y-105308500D01*
X147101939Y-105307128D01*
X147101944Y-105307128D01*
X147188888Y-105288647D01*
X147282288Y-105268794D01*
X147358800Y-105234729D01*
X147450722Y-105193803D01*
X147450724Y-105193802D01*
X147456752Y-105191118D01*
X147611253Y-105078866D01*
X147666925Y-105017036D01*
X147734621Y-104941852D01*
X147734622Y-104941851D01*
X147739040Y-104936944D01*
X147745896Y-104925069D01*
X147747958Y-104921498D01*
X147799342Y-104872506D01*
X147857076Y-104858500D01*
X148363143Y-104858500D01*
X148431264Y-104878502D01*
X148477757Y-104932158D01*
X148487861Y-105002432D01*
X148465138Y-105058416D01*
X148460960Y-105063056D01*
X148457659Y-105068774D01*
X148457658Y-105068775D01*
X148371143Y-105218624D01*
X148365473Y-105228444D01*
X148306458Y-105410072D01*
X148286496Y-105600000D01*
X148306458Y-105789928D01*
X148365473Y-105971556D01*
X148460960Y-106136944D01*
X148465378Y-106141851D01*
X148465379Y-106141852D01*
X148584325Y-106273955D01*
X148588747Y-106278866D01*
X148743248Y-106391118D01*
X148749276Y-106393802D01*
X148749278Y-106393803D01*
X148911681Y-106466109D01*
X148917712Y-106468794D01*
X149011113Y-106488647D01*
X149098056Y-106507128D01*
X149098061Y-106507128D01*
X149104513Y-106508500D01*
X149295487Y-106508500D01*
X149301939Y-106507128D01*
X149301944Y-106507128D01*
X149388887Y-106488647D01*
X149482288Y-106468794D01*
X149488319Y-106466109D01*
X149650722Y-106393803D01*
X149650724Y-106393802D01*
X149656752Y-106391118D01*
X149687856Y-106368520D01*
X149754126Y-106320371D01*
X149806163Y-106282564D01*
X149873031Y-106258706D01*
X149880224Y-106258500D01*
X150417944Y-106258500D01*
X150429800Y-106259059D01*
X150429803Y-106259059D01*
X150437537Y-106260788D01*
X150508369Y-106258562D01*
X150512327Y-106258500D01*
X150541432Y-106258500D01*
X150545832Y-106257944D01*
X150557664Y-106257012D01*
X150603831Y-106255562D01*
X150624421Y-106249580D01*
X150643782Y-106245570D01*
X150650770Y-106244688D01*
X150657204Y-106243875D01*
X150657205Y-106243875D01*
X150665064Y-106242882D01*
X150672429Y-106239966D01*
X150672433Y-106239965D01*
X150708021Y-106225874D01*
X150719231Y-106222035D01*
X150763600Y-106209145D01*
X150782065Y-106198225D01*
X150799805Y-106189534D01*
X150819756Y-106181635D01*
X150857129Y-106154482D01*
X150867048Y-106147967D01*
X150899977Y-106128493D01*
X150899981Y-106128490D01*
X150906807Y-106124453D01*
X150921971Y-106109289D01*
X150937005Y-106096448D01*
X150947943Y-106088501D01*
X150954357Y-106083841D01*
X150983803Y-106048247D01*
X150991792Y-106039468D01*
X152007605Y-105023655D01*
X152016385Y-105015665D01*
X152016387Y-105015663D01*
X152023080Y-105011416D01*
X152071605Y-104959742D01*
X152074359Y-104956901D01*
X152094927Y-104936333D01*
X152097647Y-104932826D01*
X152105353Y-104923804D01*
X152136972Y-104890133D01*
X152143366Y-104878502D01*
X152147303Y-104871342D01*
X152158157Y-104854818D01*
X152166445Y-104844132D01*
X152171304Y-104837868D01*
X152175896Y-104827257D01*
X152189654Y-104795465D01*
X152194876Y-104784805D01*
X152213305Y-104751284D01*
X152213306Y-104751282D01*
X152217124Y-104744337D01*
X152222459Y-104723559D01*
X152228858Y-104704869D01*
X152237380Y-104685176D01*
X152244606Y-104639552D01*
X152247013Y-104627929D01*
X152256528Y-104590868D01*
X152258500Y-104583188D01*
X152258500Y-104561741D01*
X152260051Y-104542031D01*
X152262166Y-104528677D01*
X152263406Y-104520848D01*
X152259059Y-104474859D01*
X152258500Y-104463004D01*
X152258500Y-102824759D01*
X152278502Y-102756638D01*
X152290864Y-102740449D01*
X152334621Y-102691852D01*
X152334622Y-102691851D01*
X152339040Y-102686944D01*
X152434527Y-102521556D01*
X152493542Y-102339928D01*
X152499110Y-102286957D01*
X152512814Y-102156565D01*
X152513504Y-102150000D01*
X152496383Y-101987098D01*
X152494232Y-101966635D01*
X152494232Y-101966633D01*
X152493542Y-101960072D01*
X152434527Y-101778444D01*
X152339040Y-101613056D01*
X152317855Y-101589527D01*
X152215675Y-101476045D01*
X152215674Y-101476044D01*
X152211253Y-101471134D01*
X152056752Y-101358882D01*
X152050724Y-101356198D01*
X152050722Y-101356197D01*
X151888319Y-101283891D01*
X151888318Y-101283891D01*
X151882288Y-101281206D01*
X151788888Y-101261353D01*
X151701944Y-101242872D01*
X151701939Y-101242872D01*
X151695487Y-101241500D01*
X151504513Y-101241500D01*
X151498061Y-101242872D01*
X151498056Y-101242872D01*
X151411113Y-101261353D01*
X151317712Y-101281206D01*
X151311682Y-101283891D01*
X151311681Y-101283891D01*
X151149278Y-101356197D01*
X151149276Y-101356198D01*
X151143248Y-101358882D01*
X150988747Y-101471134D01*
X150984326Y-101476044D01*
X150984325Y-101476045D01*
X150882146Y-101589527D01*
X150860960Y-101613056D01*
X150765473Y-101778444D01*
X150706458Y-101960072D01*
X150705768Y-101966633D01*
X150705768Y-101966635D01*
X150703617Y-101987098D01*
X150686496Y-102150000D01*
X150687186Y-102156565D01*
X150700891Y-102286957D01*
X150706458Y-102339928D01*
X150765473Y-102521556D01*
X150860960Y-102686944D01*
X150865378Y-102691851D01*
X150865379Y-102691852D01*
X150909136Y-102740449D01*
X150939854Y-102804456D01*
X150941500Y-102824759D01*
X150941500Y-103165500D01*
X150921498Y-103233621D01*
X150867842Y-103280114D01*
X150815500Y-103291500D01*
X150704513Y-103291500D01*
X150698061Y-103292872D01*
X150698056Y-103292872D01*
X150611112Y-103311353D01*
X150517712Y-103331206D01*
X150511682Y-103333891D01*
X150511681Y-103333891D01*
X150349278Y-103406197D01*
X150349276Y-103406198D01*
X150343248Y-103408882D01*
X150337907Y-103412762D01*
X150337906Y-103412763D01*
X150193837Y-103517436D01*
X150126969Y-103541294D01*
X150119776Y-103541500D01*
X149409500Y-103541500D01*
X149341379Y-103521498D01*
X149294886Y-103467842D01*
X149283500Y-103415500D01*
X149283500Y-102569366D01*
X149276745Y-102507184D01*
X149225615Y-102370795D01*
X149220229Y-102363608D01*
X149215921Y-102355740D01*
X149217789Y-102354717D01*
X149197139Y-102299445D01*
X149203255Y-102250617D01*
X149247142Y-102118689D01*
X149247643Y-102104597D01*
X149241454Y-102101500D01*
X148147000Y-102101500D01*
X148078879Y-102081498D01*
X148032386Y-102027842D01*
X148021000Y-101975500D01*
X148021000Y-101575385D01*
X148529000Y-101575385D01*
X148533475Y-101590624D01*
X148534865Y-101591829D01*
X148542548Y-101593500D01*
X149233183Y-101593500D01*
X149246714Y-101589527D01*
X149247806Y-101581933D01*
X149213231Y-101467419D01*
X149208560Y-101456086D01*
X149121538Y-101292420D01*
X149114124Y-101281260D01*
X149093088Y-101213451D01*
X149109517Y-101149297D01*
X149197262Y-100994837D01*
X149202256Y-100983621D01*
X149247142Y-100848690D01*
X149247643Y-100834597D01*
X149241454Y-100831500D01*
X148547115Y-100831500D01*
X148531876Y-100835975D01*
X148530671Y-100837365D01*
X148529000Y-100845048D01*
X148529000Y-101575385D01*
X148021000Y-101575385D01*
X148021000Y-100449500D01*
X148041002Y-100381379D01*
X148094658Y-100334886D01*
X148147000Y-100323500D01*
X149233183Y-100323500D01*
X149246714Y-100319527D01*
X149247806Y-100311933D01*
X149213231Y-100197419D01*
X149208560Y-100186086D01*
X149121537Y-100022418D01*
X149114435Y-100011728D01*
X149093398Y-99943920D01*
X149109827Y-99879764D01*
X149197723Y-99725042D01*
X149197725Y-99725037D01*
X149200769Y-99719679D01*
X149263197Y-99532013D01*
X149287985Y-99335795D01*
X149288380Y-99307500D01*
X149269080Y-99110667D01*
X149211916Y-98921331D01*
X149119066Y-98746704D01*
X149115170Y-98741927D01*
X149114404Y-98740774D01*
X149093366Y-98672966D01*
X149109795Y-98608808D01*
X149197262Y-98454837D01*
X149202256Y-98443621D01*
X149247142Y-98308690D01*
X149247643Y-98294597D01*
X149241454Y-98291500D01*
X148147000Y-98291500D01*
X148078879Y-98271498D01*
X148032386Y-98217842D01*
X148021000Y-98165500D01*
X148021000Y-97909500D01*
X148041002Y-97841379D01*
X148094658Y-97794886D01*
X148147000Y-97783500D01*
X149233183Y-97783500D01*
X149248422Y-97779025D01*
X149252340Y-97774504D01*
X149312065Y-97736119D01*
X149383062Y-97736118D01*
X149436660Y-97767920D01*
X149657030Y-97988290D01*
X149691056Y-98050602D01*
X149693244Y-98064211D01*
X149706458Y-98189928D01*
X149708498Y-98196205D01*
X149708498Y-98196207D01*
X149729880Y-98262013D01*
X149765473Y-98371556D01*
X149860960Y-98536944D01*
X149865378Y-98541851D01*
X149865379Y-98541852D01*
X149983435Y-98672966D01*
X149988747Y-98678866D01*
X150143248Y-98791118D01*
X150149276Y-98793802D01*
X150149278Y-98793803D01*
X150270082Y-98847588D01*
X150317712Y-98868794D01*
X150411112Y-98888647D01*
X150498056Y-98907128D01*
X150498061Y-98907128D01*
X150504513Y-98908500D01*
X150695487Y-98908500D01*
X150701939Y-98907128D01*
X150701944Y-98907128D01*
X150788888Y-98888647D01*
X150882288Y-98868794D01*
X150929918Y-98847588D01*
X151050722Y-98793803D01*
X151050724Y-98793802D01*
X151056752Y-98791118D01*
X151211253Y-98678866D01*
X151216565Y-98672966D01*
X151334621Y-98541852D01*
X151334622Y-98541851D01*
X151339040Y-98536944D01*
X151434527Y-98371556D01*
X151493542Y-98189928D01*
X151496110Y-98165500D01*
X151512814Y-98006565D01*
X151513504Y-98000000D01*
X151503992Y-97909500D01*
X151494232Y-97816635D01*
X151494232Y-97816633D01*
X151493542Y-97810072D01*
X151434527Y-97628444D01*
X151419954Y-97603202D01*
X151397314Y-97563990D01*
X151339040Y-97463056D01*
X151285047Y-97403090D01*
X151215675Y-97326045D01*
X151215674Y-97326044D01*
X151211253Y-97321134D01*
X151056752Y-97208882D01*
X151050724Y-97206198D01*
X151050722Y-97206197D01*
X150888319Y-97133891D01*
X150888318Y-97133891D01*
X150882288Y-97131206D01*
X150788888Y-97111353D01*
X150701944Y-97092872D01*
X150701939Y-97092872D01*
X150695487Y-97091500D01*
X150674950Y-97091500D01*
X150606829Y-97071498D01*
X150585855Y-97054595D01*
X149723655Y-96192395D01*
X149715665Y-96183615D01*
X149715663Y-96183613D01*
X149711416Y-96176920D01*
X149693965Y-96160532D01*
X149659743Y-96128396D01*
X149656901Y-96125641D01*
X149636333Y-96105073D01*
X149632826Y-96102353D01*
X149623804Y-96094647D01*
X149619613Y-96090711D01*
X149590133Y-96063028D01*
X149583181Y-96059206D01*
X149571342Y-96052697D01*
X149554818Y-96041843D01*
X149544132Y-96033555D01*
X149537868Y-96028696D01*
X149530596Y-96025549D01*
X149530594Y-96025548D01*
X149495465Y-96010346D01*
X149484805Y-96005124D01*
X149451284Y-95986695D01*
X149451282Y-95986694D01*
X149444337Y-95982876D01*
X149423559Y-95977541D01*
X149404869Y-95971142D01*
X149385176Y-95962620D01*
X149339552Y-95955394D01*
X149327929Y-95952987D01*
X149293657Y-95944188D01*
X149283188Y-95941500D01*
X149261741Y-95941500D01*
X149242031Y-95939949D01*
X149220848Y-95936594D01*
X149174859Y-95940941D01*
X149163004Y-95941500D01*
X146982060Y-95941500D01*
X146970203Y-95940941D01*
X146962463Y-95939211D01*
X146954538Y-95939460D01*
X146954537Y-95939460D01*
X146891599Y-95941438D01*
X146887641Y-95941500D01*
X146858568Y-95941500D01*
X146854634Y-95941997D01*
X146854632Y-95941997D01*
X146854189Y-95942053D01*
X146842354Y-95942985D01*
X146809564Y-95944016D01*
X146804089Y-95944188D01*
X146804088Y-95944188D01*
X146796169Y-95944437D01*
X146776444Y-95950168D01*
X146775571Y-95950421D01*
X146756218Y-95954429D01*
X146752743Y-95954868D01*
X146734936Y-95957118D01*
X146727568Y-95960035D01*
X146727565Y-95960036D01*
X146691982Y-95974125D01*
X146680747Y-95977971D01*
X146644016Y-95988642D01*
X146644013Y-95988643D01*
X146636400Y-95990855D01*
X146617935Y-96001775D01*
X146600195Y-96010466D01*
X146580244Y-96018365D01*
X146542874Y-96045516D01*
X146532952Y-96052033D01*
X146500023Y-96071507D01*
X146500019Y-96071510D01*
X146493193Y-96075547D01*
X146478029Y-96090711D01*
X146462996Y-96103551D01*
X146445643Y-96116159D01*
X146424388Y-96141852D01*
X146416198Y-96151752D01*
X146408208Y-96160532D01*
X145723595Y-96845145D01*
X145661283Y-96879171D01*
X145590468Y-96874106D01*
X145533632Y-96831559D01*
X145508821Y-96765039D01*
X145508500Y-96756050D01*
X145508500Y-92053250D01*
X145510246Y-92032345D01*
X145512770Y-92017344D01*
X145512770Y-92017341D01*
X145513576Y-92012552D01*
X145513729Y-92000000D01*
X145513040Y-91995188D01*
X145512723Y-91990327D01*
X145513008Y-91990308D01*
X145512607Y-91963549D01*
X145519234Y-91904736D01*
X145525513Y-91877229D01*
X145552485Y-91800147D01*
X145564727Y-91774726D01*
X145608178Y-91705574D01*
X145625770Y-91683515D01*
X145683515Y-91625770D01*
X145705574Y-91608178D01*
X145774726Y-91564727D01*
X145800147Y-91552485D01*
X145877228Y-91525513D01*
X145904736Y-91519234D01*
X145960226Y-91512982D01*
X145975868Y-91513077D01*
X145975879Y-91512200D01*
X145984851Y-91512310D01*
X145993724Y-91513691D01*
X146002626Y-91512527D01*
X146002628Y-91512527D01*
X146017951Y-91510523D01*
X146025286Y-91509564D01*
X146041621Y-91508500D01*
X160135957Y-91508500D01*
X160204078Y-91528502D01*
G37*
%TD.AperFunction*%
%TD*%
M02*
