%TF.GenerationSoftware,KiCad,Pcbnew,6.0.7-f9a2dced07~116~ubuntu22.04.1*%
%TF.CreationDate,2022-08-25T19:52:29+02:00*%
%TF.ProjectId,cortex_debug_adapter,636f7274-6578-45f6-9465-6275675f6164,rev?*%
%TF.SameCoordinates,Original*%
%TF.FileFunction,Legend,Top*%
%TF.FilePolarity,Positive*%
%FSLAX46Y46*%
G04 Gerber Fmt 4.6, Leading zero omitted, Abs format (unit mm)*
G04 Created by KiCad (PCBNEW 6.0.7-f9a2dced07~116~ubuntu22.04.1) date 2022-08-25 19:52:29*
%MOMM*%
%LPD*%
G01*
G04 APERTURE LIST*
%ADD10C,0.150000*%
%ADD11C,0.153000*%
%ADD12C,0.120000*%
%ADD13R,1.700000X1.700000*%
%ADD14O,1.700000X1.700000*%
%ADD15R,1.000000X1.000000*%
%ADD16O,1.000000X1.000000*%
G04 APERTURE END LIST*
D10*
X149225000Y-103867500D02*
X146050000Y-103867500D01*
X146050000Y-103867500D02*
X146050000Y-97342500D01*
X146050000Y-97342500D02*
X149225000Y-97342500D01*
X149225000Y-97342500D02*
X149225000Y-103867500D01*
X149975000Y-99855000D02*
X149350000Y-99855000D01*
X149350000Y-99855000D02*
X149350000Y-101230000D01*
X149350000Y-101230000D02*
X149975000Y-101230000D01*
X149975000Y-101230000D02*
X149975000Y-99855000D01*
G36*
X149975000Y-99855000D02*
G01*
X149350000Y-99855000D01*
X149350000Y-101230000D01*
X149975000Y-101230000D01*
X149975000Y-99855000D01*
G37*
D11*
X156952380Y-93452380D02*
X156619047Y-92976190D01*
X156380952Y-93452380D02*
X156380952Y-92452380D01*
X156761904Y-92452380D01*
X156857142Y-92500000D01*
X156904761Y-92547619D01*
X156952380Y-92642857D01*
X156952380Y-92785714D01*
X156904761Y-92880952D01*
X156857142Y-92928571D01*
X156761904Y-92976190D01*
X156380952Y-92976190D01*
X157333333Y-93404761D02*
X157476190Y-93452380D01*
X157714285Y-93452380D01*
X157809523Y-93404761D01*
X157857142Y-93357142D01*
X157904761Y-93261904D01*
X157904761Y-93166666D01*
X157857142Y-93071428D01*
X157809523Y-93023809D01*
X157714285Y-92976190D01*
X157523809Y-92928571D01*
X157428571Y-92880952D01*
X157380952Y-92833333D01*
X157333333Y-92738095D01*
X157333333Y-92642857D01*
X157380952Y-92547619D01*
X157428571Y-92500000D01*
X157523809Y-92452380D01*
X157761904Y-92452380D01*
X157904761Y-92500000D01*
X158190476Y-92452380D02*
X158761904Y-92452380D01*
X158476190Y-93452380D02*
X158476190Y-92452380D01*
X150438095Y-101004761D02*
X150580952Y-101052380D01*
X150819047Y-101052380D01*
X150914285Y-101004761D01*
X150961904Y-100957142D01*
X151009523Y-100861904D01*
X151009523Y-100766666D01*
X150961904Y-100671428D01*
X150914285Y-100623809D01*
X150819047Y-100576190D01*
X150628571Y-100528571D01*
X150533333Y-100480952D01*
X150485714Y-100433333D01*
X150438095Y-100338095D01*
X150438095Y-100242857D01*
X150485714Y-100147619D01*
X150533333Y-100100000D01*
X150628571Y-100052380D01*
X150866666Y-100052380D01*
X151009523Y-100100000D01*
X151342857Y-100052380D02*
X151580952Y-101052380D01*
X151771428Y-100338095D01*
X151961904Y-101052380D01*
X152200000Y-100052380D01*
X153152381Y-100957142D02*
X153104762Y-101004761D01*
X152961904Y-101052380D01*
X152866666Y-101052380D01*
X152723809Y-101004761D01*
X152628571Y-100909523D01*
X152580952Y-100814285D01*
X152533333Y-100623809D01*
X152533333Y-100480952D01*
X152580952Y-100290476D01*
X152628571Y-100195238D01*
X152723809Y-100100000D01*
X152866666Y-100052380D01*
X152961904Y-100052380D01*
X153104762Y-100100000D01*
X153152381Y-100147619D01*
X154057142Y-101052380D02*
X153580952Y-101052380D01*
X153580952Y-100052380D01*
X154390476Y-101052380D02*
X154390476Y-100052380D01*
X154961904Y-101052380D02*
X154533333Y-100480952D01*
X154961904Y-100052380D02*
X154390476Y-100623809D01*
X156104762Y-100004761D02*
X155247619Y-101290476D01*
X156295238Y-100052380D02*
X156866666Y-100052380D01*
X156580952Y-101052380D02*
X156580952Y-100052380D01*
X157771428Y-100957142D02*
X157723809Y-101004761D01*
X157580952Y-101052380D01*
X157485714Y-101052380D01*
X157342857Y-101004761D01*
X157247619Y-100909523D01*
X157200000Y-100814285D01*
X157152381Y-100623809D01*
X157152381Y-100480952D01*
X157200000Y-100290476D01*
X157247619Y-100195238D01*
X157342857Y-100100000D01*
X157485714Y-100052380D01*
X157580952Y-100052380D01*
X157723809Y-100100000D01*
X157771428Y-100147619D01*
X158200000Y-101052380D02*
X158200000Y-100052380D01*
X158771428Y-101052380D02*
X158342857Y-100480952D01*
X158771428Y-100052380D02*
X158200000Y-100623809D01*
X150628571Y-103604761D02*
X150771428Y-103652380D01*
X151009523Y-103652380D01*
X151104761Y-103604761D01*
X151152380Y-103557142D01*
X151200000Y-103461904D01*
X151200000Y-103366666D01*
X151152380Y-103271428D01*
X151104761Y-103223809D01*
X151009523Y-103176190D01*
X150819047Y-103128571D01*
X150723809Y-103080952D01*
X150676190Y-103033333D01*
X150628571Y-102938095D01*
X150628571Y-102842857D01*
X150676190Y-102747619D01*
X150723809Y-102700000D01*
X150819047Y-102652380D01*
X151057142Y-102652380D01*
X151200000Y-102700000D01*
X151533333Y-102652380D02*
X151771428Y-103652380D01*
X151961904Y-102938095D01*
X152152380Y-103652380D01*
X152390476Y-102652380D01*
X152771428Y-103652380D02*
X152771428Y-102652380D01*
X153009523Y-102652380D01*
X153152380Y-102700000D01*
X153247619Y-102795238D01*
X153295238Y-102890476D01*
X153342857Y-103080952D01*
X153342857Y-103223809D01*
X153295238Y-103414285D01*
X153247619Y-103509523D01*
X153152380Y-103604761D01*
X153009523Y-103652380D01*
X152771428Y-103652380D01*
X153771428Y-103652380D02*
X153771428Y-102652380D01*
X154438095Y-102652380D02*
X154628571Y-102652380D01*
X154723809Y-102700000D01*
X154819047Y-102795238D01*
X154866666Y-102985714D01*
X154866666Y-103319047D01*
X154819047Y-103509523D01*
X154723809Y-103604761D01*
X154628571Y-103652380D01*
X154438095Y-103652380D01*
X154342857Y-103604761D01*
X154247619Y-103509523D01*
X154200000Y-103319047D01*
X154200000Y-102985714D01*
X154247619Y-102795238D01*
X154342857Y-102700000D01*
X154438095Y-102652380D01*
X156009523Y-102604761D02*
X155152380Y-103890476D01*
X156200000Y-102652380D02*
X156771428Y-102652380D01*
X156485714Y-103652380D02*
X156485714Y-102652380D01*
X157104761Y-103652380D02*
X157104761Y-102652380D01*
X157438095Y-103366666D01*
X157771428Y-102652380D01*
X157771428Y-103652380D01*
X158200000Y-103604761D02*
X158342857Y-103652380D01*
X158580952Y-103652380D01*
X158676190Y-103604761D01*
X158723809Y-103557142D01*
X158771428Y-103461904D01*
X158771428Y-103366666D01*
X158723809Y-103271428D01*
X158676190Y-103223809D01*
X158580952Y-103176190D01*
X158390476Y-103128571D01*
X158295238Y-103080952D01*
X158247619Y-103033333D01*
X158200000Y-102938095D01*
X158200000Y-102842857D01*
X158247619Y-102747619D01*
X158295238Y-102700000D01*
X158390476Y-102652380D01*
X158628571Y-102652380D01*
X158771428Y-102700000D01*
D10*
X146228571Y-93399761D02*
X146371428Y-93447380D01*
X146609523Y-93447380D01*
X146704761Y-93399761D01*
X146752380Y-93352142D01*
X146800000Y-93256904D01*
X146800000Y-93161666D01*
X146752380Y-93066428D01*
X146704761Y-93018809D01*
X146609523Y-92971190D01*
X146419047Y-92923571D01*
X146323809Y-92875952D01*
X146276190Y-92828333D01*
X146228571Y-92733095D01*
X146228571Y-92637857D01*
X146276190Y-92542619D01*
X146323809Y-92495000D01*
X146419047Y-92447380D01*
X146657142Y-92447380D01*
X146800000Y-92495000D01*
X147133333Y-92447380D02*
X147371428Y-93447380D01*
X147561904Y-92733095D01*
X147752380Y-93447380D01*
X147990476Y-92447380D01*
X148371428Y-93447380D02*
X148371428Y-92447380D01*
X148609523Y-92447380D01*
X148752380Y-92495000D01*
X148847619Y-92590238D01*
X148895238Y-92685476D01*
X148942857Y-92875952D01*
X148942857Y-93018809D01*
X148895238Y-93209285D01*
X148847619Y-93304523D01*
X148752380Y-93399761D01*
X148609523Y-93447380D01*
X148371428Y-93447380D01*
X150085714Y-92399761D02*
X149228571Y-93685476D01*
X150704761Y-92447380D02*
X150704761Y-93161666D01*
X150657142Y-93304523D01*
X150561904Y-93399761D01*
X150419047Y-93447380D01*
X150323809Y-93447380D01*
X151038095Y-92447380D02*
X151609523Y-92447380D01*
X151323809Y-93447380D02*
X151323809Y-92447380D01*
X151895238Y-93161666D02*
X152371428Y-93161666D01*
X151800000Y-93447380D02*
X152133333Y-92447380D01*
X152466666Y-93447380D01*
X153323809Y-92495000D02*
X153228571Y-92447380D01*
X153085714Y-92447380D01*
X152942857Y-92495000D01*
X152847619Y-92590238D01*
X152800000Y-92685476D01*
X152752380Y-92875952D01*
X152752380Y-93018809D01*
X152800000Y-93209285D01*
X152847619Y-93304523D01*
X152942857Y-93399761D01*
X153085714Y-93447380D01*
X153180952Y-93447380D01*
X153323809Y-93399761D01*
X153371428Y-93352142D01*
X153371428Y-93018809D01*
X153180952Y-93018809D01*
X147633333Y-95057380D02*
X147633333Y-94533571D01*
X147585714Y-94438333D01*
X147490476Y-94390714D01*
X147300000Y-94390714D01*
X147204761Y-94438333D01*
X147633333Y-95009761D02*
X147538095Y-95057380D01*
X147300000Y-95057380D01*
X147204761Y-95009761D01*
X147157142Y-94914523D01*
X147157142Y-94819285D01*
X147204761Y-94724047D01*
X147300000Y-94676428D01*
X147538095Y-94676428D01*
X147633333Y-94628809D01*
X148538095Y-95057380D02*
X148538095Y-94057380D01*
X148538095Y-95009761D02*
X148442857Y-95057380D01*
X148252380Y-95057380D01*
X148157142Y-95009761D01*
X148109523Y-94962142D01*
X148061904Y-94866904D01*
X148061904Y-94581190D01*
X148109523Y-94485952D01*
X148157142Y-94438333D01*
X148252380Y-94390714D01*
X148442857Y-94390714D01*
X148538095Y-94438333D01*
X149442857Y-95057380D02*
X149442857Y-94533571D01*
X149395238Y-94438333D01*
X149300000Y-94390714D01*
X149109523Y-94390714D01*
X149014285Y-94438333D01*
X149442857Y-95009761D02*
X149347619Y-95057380D01*
X149109523Y-95057380D01*
X149014285Y-95009761D01*
X148966666Y-94914523D01*
X148966666Y-94819285D01*
X149014285Y-94724047D01*
X149109523Y-94676428D01*
X149347619Y-94676428D01*
X149442857Y-94628809D01*
X149919047Y-94390714D02*
X149919047Y-95390714D01*
X149919047Y-94438333D02*
X150014285Y-94390714D01*
X150204761Y-94390714D01*
X150300000Y-94438333D01*
X150347619Y-94485952D01*
X150395238Y-94581190D01*
X150395238Y-94866904D01*
X150347619Y-94962142D01*
X150300000Y-95009761D01*
X150204761Y-95057380D01*
X150014285Y-95057380D01*
X149919047Y-95009761D01*
X150680952Y-94390714D02*
X151061904Y-94390714D01*
X150823809Y-94057380D02*
X150823809Y-94914523D01*
X150871428Y-95009761D01*
X150966666Y-95057380D01*
X151061904Y-95057380D01*
X151776190Y-95009761D02*
X151680952Y-95057380D01*
X151490476Y-95057380D01*
X151395238Y-95009761D01*
X151347619Y-94914523D01*
X151347619Y-94533571D01*
X151395238Y-94438333D01*
X151490476Y-94390714D01*
X151680952Y-94390714D01*
X151776190Y-94438333D01*
X151823809Y-94533571D01*
X151823809Y-94628809D01*
X151347619Y-94724047D01*
X152252380Y-95057380D02*
X152252380Y-94390714D01*
X152252380Y-94581190D02*
X152300000Y-94485952D01*
X152347619Y-94438333D01*
X152442857Y-94390714D01*
X152538095Y-94390714D01*
D11*
X156819047Y-95052380D02*
X157390476Y-95052380D01*
X157104761Y-96052380D02*
X157104761Y-95052380D01*
X157723809Y-96052380D02*
X157723809Y-95052380D01*
X157961904Y-95052380D01*
X158104761Y-95100000D01*
X158199999Y-95195238D01*
X158247618Y-95290476D01*
X158295237Y-95480952D01*
X158295237Y-95623809D01*
X158247618Y-95814285D01*
X158199999Y-95909523D01*
X158104761Y-96004761D01*
X157961904Y-96052380D01*
X157723809Y-96052380D01*
X158723809Y-96052380D02*
X158723809Y-95052380D01*
X156676190Y-105200000D02*
X156580952Y-105152380D01*
X156438095Y-105152380D01*
X156295237Y-105200000D01*
X156199999Y-105295238D01*
X156152380Y-105390476D01*
X156104761Y-105580952D01*
X156104761Y-105723809D01*
X156152380Y-105914285D01*
X156199999Y-106009523D01*
X156295237Y-106104761D01*
X156438095Y-106152380D01*
X156533333Y-106152380D01*
X156676190Y-106104761D01*
X156723809Y-106057142D01*
X156723809Y-105723809D01*
X156533333Y-105723809D01*
X157152380Y-106152380D02*
X157152380Y-105152380D01*
X157723809Y-106152380D01*
X157723809Y-105152380D01*
X158199999Y-106152380D02*
X158199999Y-105152380D01*
X158438095Y-105152380D01*
X158580952Y-105200000D01*
X158676190Y-105295238D01*
X158723809Y-105390476D01*
X158771428Y-105580952D01*
X158771428Y-105723809D01*
X158723809Y-105914285D01*
X158676190Y-106009523D01*
X158580952Y-106104761D01*
X158438095Y-106152380D01*
X158199999Y-106152380D01*
X152152381Y-98554761D02*
X152295238Y-98602380D01*
X152533333Y-98602380D01*
X152628571Y-98554761D01*
X152676190Y-98507142D01*
X152723809Y-98411904D01*
X152723809Y-98316666D01*
X152676190Y-98221428D01*
X152628571Y-98173809D01*
X152533333Y-98126190D01*
X152342857Y-98078571D01*
X152247619Y-98030952D01*
X152200000Y-97983333D01*
X152152381Y-97888095D01*
X152152381Y-97792857D01*
X152200000Y-97697619D01*
X152247619Y-97650000D01*
X152342857Y-97602380D01*
X152580952Y-97602380D01*
X152723809Y-97650000D01*
X153057143Y-97602380D02*
X153295238Y-98602380D01*
X153485714Y-97888095D01*
X153676190Y-98602380D01*
X153914285Y-97602380D01*
X154485714Y-97602380D02*
X154676190Y-97602380D01*
X154771428Y-97650000D01*
X154866666Y-97745238D01*
X154914285Y-97935714D01*
X154914285Y-98269047D01*
X154866666Y-98459523D01*
X154771428Y-98554761D01*
X154676190Y-98602380D01*
X154485714Y-98602380D01*
X154390476Y-98554761D01*
X154295238Y-98459523D01*
X154247619Y-98269047D01*
X154247619Y-97935714D01*
X154295238Y-97745238D01*
X154390476Y-97650000D01*
X154485714Y-97602380D01*
X156057143Y-97554761D02*
X155200000Y-98840476D01*
X156247619Y-97602380D02*
X156819047Y-97602380D01*
X156533333Y-98602380D02*
X156533333Y-97602380D01*
X157152381Y-98602380D02*
X157152381Y-97602380D01*
X157390476Y-97602380D01*
X157533333Y-97650000D01*
X157628571Y-97745238D01*
X157676190Y-97840476D01*
X157723809Y-98030952D01*
X157723809Y-98173809D01*
X157676190Y-98364285D01*
X157628571Y-98459523D01*
X157533333Y-98554761D01*
X157390476Y-98602380D01*
X157152381Y-98602380D01*
X158342857Y-97602380D02*
X158533333Y-97602380D01*
X158628571Y-97650000D01*
X158723809Y-97745238D01*
X158771428Y-97935714D01*
X158771428Y-98269047D01*
X158723809Y-98459523D01*
X158628571Y-98554761D01*
X158533333Y-98602380D01*
X158342857Y-98602380D01*
X158247619Y-98554761D01*
X158152381Y-98459523D01*
X158104762Y-98269047D01*
X158104762Y-97935714D01*
X158152381Y-97745238D01*
X158247619Y-97650000D01*
X158342857Y-97602380D01*
D12*
%TO.C,J2*%
X162130000Y-106932500D02*
X159470000Y-106932500D01*
X162130000Y-109532500D02*
X160800000Y-109532500D01*
X162130000Y-108202500D02*
X162130000Y-109532500D01*
X162130000Y-91632500D02*
X159470000Y-91632500D01*
X162130000Y-106932500D02*
X162130000Y-91632500D01*
X159470000Y-106932500D02*
X159470000Y-91632500D01*
%TO.C,kibuzzard-630691B0*%
G36*
X155813571Y-107356508D02*
G01*
X158786429Y-107356508D01*
X158786429Y-109043492D01*
X155813571Y-109043492D01*
X155813571Y-107709462D01*
X156144300Y-107709462D01*
X156162556Y-107798362D01*
X156188750Y-107909487D01*
X156209740Y-107992655D01*
X156232494Y-108079174D01*
X156257012Y-108169044D01*
X156282942Y-108260678D01*
X156309929Y-108352488D01*
X156337975Y-108444475D01*
X156379647Y-108575444D01*
X156418937Y-108692125D01*
X156620550Y-108692125D01*
X156650889Y-108607547D01*
X156680522Y-108521028D01*
X156709450Y-108432569D01*
X156737231Y-108343669D01*
X156763425Y-108255827D01*
X156779254Y-108200000D01*
X156960275Y-108200000D01*
X156967121Y-108315987D01*
X156987659Y-108417884D01*
X157021890Y-108505693D01*
X157069812Y-108579412D01*
X157153774Y-108653496D01*
X157259607Y-108697946D01*
X157387312Y-108712762D01*
X157474030Y-108707405D01*
X157550031Y-108691331D01*
X157661950Y-108644500D01*
X157612737Y-108490512D01*
X157532569Y-108525437D01*
X157406362Y-108542900D01*
X157293055Y-108520477D01*
X157216656Y-108453206D01*
X157184465Y-108384679D01*
X157165151Y-108298690D01*
X157159008Y-108200000D01*
X157754025Y-108200000D01*
X157760871Y-108315987D01*
X157781409Y-108417884D01*
X157815640Y-108505693D01*
X157863563Y-108579412D01*
X157947524Y-108653496D01*
X158053357Y-108697946D01*
X158181062Y-108712762D01*
X158267780Y-108707405D01*
X158343781Y-108691331D01*
X158455700Y-108644500D01*
X158406487Y-108490512D01*
X158326319Y-108525437D01*
X158200112Y-108542900D01*
X158086805Y-108520477D01*
X158010406Y-108453206D01*
X157978215Y-108384679D01*
X157958901Y-108298690D01*
X157952462Y-108195237D01*
X157957820Y-108106337D01*
X157973894Y-108033312D01*
X158029456Y-107929331D01*
X158107244Y-107873769D01*
X158196938Y-107857100D01*
X158315206Y-107873769D01*
X158403312Y-107914250D01*
X158454112Y-107758675D01*
X158421569Y-107739625D01*
X158368387Y-107715812D01*
X158294569Y-107695969D01*
X158200112Y-107687237D01*
X158107045Y-107695770D01*
X158021519Y-107721369D01*
X157945319Y-107763437D01*
X157880231Y-107821381D01*
X157827248Y-107894605D01*
X157787362Y-107982512D01*
X157762359Y-108084509D01*
X157754025Y-108200000D01*
X157159008Y-108200000D01*
X157158712Y-108195237D01*
X157164070Y-108106337D01*
X157180144Y-108033312D01*
X157235706Y-107929331D01*
X157313494Y-107873769D01*
X157403187Y-107857100D01*
X157521456Y-107873769D01*
X157609562Y-107914250D01*
X157660362Y-107758675D01*
X157627819Y-107739625D01*
X157574637Y-107715812D01*
X157500819Y-107695969D01*
X157406362Y-107687237D01*
X157313295Y-107695770D01*
X157227769Y-107721369D01*
X157151569Y-107763437D01*
X157086481Y-107821381D01*
X157033498Y-107894605D01*
X156993612Y-107982512D01*
X156968609Y-108084509D01*
X156960275Y-108200000D01*
X156779254Y-108200000D01*
X156788031Y-108169044D01*
X156821766Y-108042639D01*
X156851531Y-107922187D01*
X156877130Y-107810269D01*
X156898362Y-107709462D01*
X156693575Y-107709462D01*
X156679287Y-107792012D01*
X156661825Y-107887262D01*
X156641981Y-107990252D01*
X156620550Y-108096019D01*
X156597531Y-108202381D01*
X156572925Y-108307156D01*
X156547525Y-108405383D01*
X156522125Y-108492100D01*
X156496527Y-108404192D01*
X156470531Y-108305569D01*
X156445131Y-108200794D01*
X156421319Y-108094431D01*
X156399292Y-107988862D01*
X156379250Y-107886469D01*
X156362581Y-107791814D01*
X156350675Y-107709462D01*
X156144300Y-107709462D01*
X155813571Y-107709462D01*
X155813571Y-107356508D01*
G37*
%TD*%
%LPC*%
D13*
%TO.C,J2*%
X160800000Y-108202500D03*
D14*
X160800000Y-105662500D03*
X160800000Y-103122500D03*
X160800000Y-100582500D03*
X160800000Y-98042500D03*
X160800000Y-95502500D03*
X160800000Y-92962500D03*
%TD*%
D15*
%TO.C,J1*%
X148275000Y-103117500D03*
D16*
X147005000Y-103117500D03*
X148275000Y-101847500D03*
X147005000Y-101847500D03*
X148275000Y-100577500D03*
X147005000Y-100577500D03*
X148275000Y-99307500D03*
X147005000Y-99307500D03*
X148275000Y-98037500D03*
X147005000Y-98037500D03*
%TD*%
M02*
