%TF.GenerationSoftware,KiCad,Pcbnew,6.0.7-f9a2dced07~116~ubuntu22.04.1*%
%TF.CreationDate,2022-08-24T23:03:50+02:00*%
%TF.ProjectId,cortex_debug_adapter,636f7274-6578-45f6-9465-6275675f6164,rev?*%
%TF.SameCoordinates,Original*%
%TF.FileFunction,Copper,L2,Bot*%
%TF.FilePolarity,Positive*%
%FSLAX46Y46*%
G04 Gerber Fmt 4.6, Leading zero omitted, Abs format (unit mm)*
G04 Created by KiCad (PCBNEW 6.0.7-f9a2dced07~116~ubuntu22.04.1) date 2022-08-24 23:03:50*
%MOMM*%
%LPD*%
G01*
G04 APERTURE LIST*
%TA.AperFunction,ComponentPad*%
%ADD10R,1.700000X1.700000*%
%TD*%
%TA.AperFunction,ComponentPad*%
%ADD11O,1.700000X1.700000*%
%TD*%
%TA.AperFunction,ComponentPad*%
%ADD12R,1.000000X1.000000*%
%TD*%
%TA.AperFunction,ComponentPad*%
%ADD13O,1.000000X1.000000*%
%TD*%
G04 APERTURE END LIST*
D10*
%TO.P,J2,1,Pin_1*%
%TO.N,VCC*%
X160800000Y-92952500D03*
D11*
%TO.P,J2,2,Pin_2*%
%TO.N,GND*%
X160800000Y-95492500D03*
%TO.P,J2,3,Pin_3*%
%TO.N,/TMS{slash}SWDIO*%
X160800000Y-98032500D03*
%TO.P,J2,4,Pin_4*%
%TO.N,/TCLK{slash}SWCLK*%
X160800000Y-100572500D03*
%TO.P,J2,5,Pin_5*%
%TO.N,/TDO{slash}SWO*%
X160800000Y-103112500D03*
%TO.P,J2,6,Pin_6*%
%TO.N,/TDI*%
X160800000Y-105652500D03*
%TO.P,J2,7,Pin_7*%
%TO.N,/RESET*%
X160800000Y-108192500D03*
%TD*%
D12*
%TO.P,J1,1,Pin_1*%
%TO.N,VCC*%
X147300000Y-98037500D03*
D13*
%TO.P,J1,2,Pin_2*%
%TO.N,/TMS{slash}SWDIO*%
X148570000Y-98037500D03*
%TO.P,J1,3,Pin_3*%
%TO.N,GND*%
X147300000Y-99307500D03*
%TO.P,J1,4,Pin_4*%
%TO.N,/TCLK{slash}SWCLK*%
X148570000Y-99307500D03*
%TO.P,J1,5,Pin_5*%
%TO.N,GND*%
X147300000Y-100577500D03*
%TO.P,J1,6,Pin_6*%
%TO.N,/TDO{slash}SWO*%
X148570000Y-100577500D03*
%TO.P,J1,7,Pin_7*%
%TO.N,unconnected-(J1-Pad7)*%
X147300000Y-101847500D03*
%TO.P,J1,8,Pin_8*%
%TO.N,/TDI*%
X148570000Y-101847500D03*
%TO.P,J1,9,Pin_9*%
%TO.N,GND*%
X147300000Y-103117500D03*
%TO.P,J1,10,Pin_10*%
%TO.N,/RESET*%
X148570000Y-103117500D03*
%TD*%
%TA.AperFunction,Conductor*%
%TO.N,GND*%
G36*
X159584516Y-91528502D02*
G01*
X159631009Y-91582158D01*
X159641113Y-91652432D01*
X159611619Y-91717012D01*
X159599137Y-91728640D01*
X159593919Y-91733858D01*
X159586739Y-91739239D01*
X159499385Y-91855795D01*
X159448255Y-91992184D01*
X159441500Y-92054366D01*
X159441500Y-93850634D01*
X159448255Y-93912816D01*
X159499385Y-94049205D01*
X159586739Y-94165761D01*
X159703295Y-94253115D01*
X159711704Y-94256267D01*
X159711705Y-94256268D01*
X159820960Y-94297226D01*
X159877725Y-94339867D01*
X159902425Y-94406429D01*
X159887218Y-94475778D01*
X159867825Y-94502259D01*
X159744590Y-94631217D01*
X159738104Y-94639227D01*
X159618098Y-94815149D01*
X159613000Y-94824123D01*
X159523338Y-95017283D01*
X159519775Y-95026970D01*
X159464389Y-95226683D01*
X159465912Y-95235107D01*
X159478292Y-95238500D01*
X162118344Y-95238500D01*
X162131875Y-95234527D01*
X162133180Y-95225447D01*
X162091214Y-95058375D01*
X162087894Y-95048624D01*
X162002972Y-94853314D01*
X161998105Y-94844239D01*
X161882426Y-94665426D01*
X161876136Y-94657257D01*
X161732293Y-94499177D01*
X161701241Y-94435331D01*
X161709635Y-94364833D01*
X161754812Y-94310064D01*
X161781256Y-94296395D01*
X161888297Y-94256267D01*
X161896705Y-94253115D01*
X162013261Y-94165761D01*
X162100615Y-94049205D01*
X162151745Y-93912816D01*
X162158500Y-93850634D01*
X162158500Y-92054366D01*
X162151745Y-91992184D01*
X162100615Y-91855795D01*
X162013261Y-91739239D01*
X162006081Y-91733858D01*
X161999731Y-91727508D01*
X162001140Y-91726099D01*
X161965524Y-91678466D01*
X161960500Y-91607647D01*
X161994560Y-91545354D01*
X162056891Y-91511364D01*
X162083605Y-91508500D01*
X163750633Y-91508500D01*
X163770018Y-91510000D01*
X163784852Y-91512310D01*
X163784855Y-91512310D01*
X163793724Y-91513691D01*
X163802626Y-91512527D01*
X163802750Y-91512511D01*
X163833192Y-91512240D01*
X163840621Y-91513077D01*
X163895264Y-91519234D01*
X163922771Y-91525513D01*
X163999853Y-91552485D01*
X164025274Y-91564727D01*
X164094426Y-91608178D01*
X164116485Y-91625770D01*
X164174230Y-91683515D01*
X164191822Y-91705574D01*
X164235273Y-91774726D01*
X164247515Y-91800147D01*
X164274487Y-91877228D01*
X164280766Y-91904736D01*
X164287018Y-91960226D01*
X164286923Y-91975868D01*
X164287800Y-91975879D01*
X164287690Y-91984851D01*
X164286309Y-91993724D01*
X164287473Y-92002626D01*
X164287473Y-92002628D01*
X164290436Y-92025283D01*
X164291500Y-92041621D01*
X164291500Y-109141274D01*
X164289859Y-109161542D01*
X164286366Y-109182974D01*
X164287499Y-109192139D01*
X164287570Y-109222462D01*
X164283404Y-109257519D01*
X164279926Y-109286784D01*
X164273566Y-109314012D01*
X164245462Y-109393297D01*
X164233254Y-109418450D01*
X164214736Y-109447790D01*
X164188357Y-109489583D01*
X164170901Y-109511426D01*
X164111426Y-109570901D01*
X164089583Y-109588357D01*
X164028765Y-109626744D01*
X164018452Y-109633253D01*
X163993297Y-109645462D01*
X163914012Y-109673566D01*
X163886783Y-109679926D01*
X163829055Y-109686786D01*
X163813390Y-109686573D01*
X163813385Y-109687641D01*
X163804404Y-109687595D01*
X163795526Y-109686277D01*
X163785641Y-109687641D01*
X163766247Y-109690317D01*
X163749024Y-109691500D01*
X161371851Y-109691500D01*
X161303730Y-109671498D01*
X161257237Y-109617842D01*
X161247133Y-109547568D01*
X161276627Y-109482988D01*
X161316419Y-109452349D01*
X161493346Y-109365673D01*
X161497994Y-109363396D01*
X161679860Y-109233673D01*
X161706333Y-109207293D01*
X161834435Y-109079637D01*
X161838096Y-109075989D01*
X161897594Y-108993189D01*
X161965435Y-108898777D01*
X161968453Y-108894577D01*
X162067430Y-108694311D01*
X162132370Y-108480569D01*
X162161529Y-108259090D01*
X162163156Y-108192500D01*
X162144852Y-107969861D01*
X162090431Y-107753202D01*
X162001354Y-107548340D01*
X161880014Y-107360777D01*
X161729670Y-107195551D01*
X161725619Y-107192352D01*
X161725615Y-107192348D01*
X161558414Y-107060300D01*
X161558410Y-107060298D01*
X161554359Y-107057098D01*
X161513053Y-107034296D01*
X161463084Y-106983864D01*
X161448312Y-106914421D01*
X161473428Y-106848016D01*
X161500780Y-106821409D01*
X161544603Y-106790150D01*
X161679860Y-106693673D01*
X161838096Y-106535989D01*
X161897594Y-106453189D01*
X161965435Y-106358777D01*
X161968453Y-106354577D01*
X162067430Y-106154311D01*
X162132370Y-105940569D01*
X162161529Y-105719090D01*
X162163156Y-105652500D01*
X162144852Y-105429861D01*
X162090431Y-105213202D01*
X162001354Y-105008340D01*
X161880014Y-104820777D01*
X161729670Y-104655551D01*
X161725619Y-104652352D01*
X161725615Y-104652348D01*
X161558414Y-104520300D01*
X161558410Y-104520298D01*
X161554359Y-104517098D01*
X161513053Y-104494296D01*
X161463084Y-104443864D01*
X161448312Y-104374421D01*
X161473428Y-104308016D01*
X161500780Y-104281409D01*
X161544603Y-104250150D01*
X161679860Y-104153673D01*
X161719847Y-104113826D01*
X161834435Y-103999637D01*
X161838096Y-103995989D01*
X161852529Y-103975904D01*
X161965435Y-103818777D01*
X161968453Y-103814577D01*
X162041659Y-103666456D01*
X162065136Y-103618953D01*
X162065137Y-103618951D01*
X162067430Y-103614311D01*
X162132370Y-103400569D01*
X162161529Y-103179090D01*
X162163156Y-103112500D01*
X162144852Y-102889861D01*
X162090431Y-102673202D01*
X162001354Y-102468340D01*
X161880014Y-102280777D01*
X161729670Y-102115551D01*
X161725619Y-102112352D01*
X161725615Y-102112348D01*
X161558414Y-101980300D01*
X161558410Y-101980298D01*
X161554359Y-101977098D01*
X161513053Y-101954296D01*
X161463084Y-101903864D01*
X161448312Y-101834421D01*
X161473428Y-101768016D01*
X161500780Y-101741409D01*
X161544603Y-101710150D01*
X161679860Y-101613673D01*
X161838096Y-101455989D01*
X161843631Y-101448287D01*
X161965435Y-101278777D01*
X161968453Y-101274577D01*
X161998947Y-101212878D01*
X162065136Y-101078953D01*
X162065137Y-101078951D01*
X162067430Y-101074311D01*
X162132370Y-100860569D01*
X162161529Y-100639090D01*
X162163156Y-100572500D01*
X162144852Y-100349861D01*
X162090431Y-100133202D01*
X162001354Y-99928340D01*
X161880014Y-99740777D01*
X161729670Y-99575551D01*
X161725619Y-99572352D01*
X161725615Y-99572348D01*
X161558414Y-99440300D01*
X161558410Y-99440298D01*
X161554359Y-99437098D01*
X161513053Y-99414296D01*
X161463084Y-99363864D01*
X161448312Y-99294421D01*
X161473428Y-99228016D01*
X161500780Y-99201409D01*
X161544603Y-99170150D01*
X161679860Y-99073673D01*
X161838096Y-98915989D01*
X161849039Y-98900761D01*
X161965435Y-98738777D01*
X161968453Y-98734577D01*
X161998947Y-98672878D01*
X162065136Y-98538953D01*
X162065137Y-98538951D01*
X162067430Y-98534311D01*
X162132370Y-98320569D01*
X162161529Y-98099090D01*
X162163156Y-98032500D01*
X162144852Y-97809861D01*
X162090431Y-97593202D01*
X162001354Y-97388340D01*
X161938249Y-97290795D01*
X161882822Y-97205117D01*
X161882820Y-97205114D01*
X161880014Y-97200777D01*
X161729670Y-97035551D01*
X161725619Y-97032352D01*
X161725615Y-97032348D01*
X161558414Y-96900300D01*
X161558410Y-96900298D01*
X161554359Y-96897098D01*
X161512569Y-96874029D01*
X161462598Y-96823597D01*
X161447826Y-96754154D01*
X161472942Y-96687748D01*
X161500294Y-96661141D01*
X161675328Y-96536292D01*
X161683200Y-96529639D01*
X161834052Y-96379312D01*
X161840730Y-96371465D01*
X161965003Y-96198520D01*
X161970313Y-96189683D01*
X162064670Y-95998767D01*
X162068469Y-95989172D01*
X162130377Y-95785410D01*
X162132555Y-95775337D01*
X162133986Y-95764462D01*
X162131775Y-95750278D01*
X162118617Y-95746500D01*
X159483225Y-95746500D01*
X159469694Y-95750473D01*
X159468257Y-95760466D01*
X159498565Y-95894946D01*
X159501645Y-95904775D01*
X159581770Y-96102103D01*
X159586413Y-96111294D01*
X159697694Y-96292888D01*
X159703777Y-96301199D01*
X159843213Y-96462167D01*
X159850580Y-96469383D01*
X160014434Y-96605416D01*
X160022881Y-96611331D01*
X160091969Y-96651703D01*
X160140693Y-96703342D01*
X160153764Y-96773125D01*
X160127033Y-96838896D01*
X160086584Y-96872252D01*
X160073607Y-96879007D01*
X160069474Y-96882110D01*
X160069471Y-96882112D01*
X160045247Y-96900300D01*
X159894965Y-97013135D01*
X159876605Y-97032348D01*
X159746153Y-97168858D01*
X159740629Y-97174638D01*
X159614743Y-97359180D01*
X159520688Y-97561805D01*
X159460989Y-97777070D01*
X159437251Y-97999195D01*
X159437548Y-98004348D01*
X159437548Y-98004351D01*
X159443011Y-98099090D01*
X159450110Y-98222215D01*
X159451247Y-98227261D01*
X159451248Y-98227267D01*
X159471119Y-98315439D01*
X159499222Y-98440139D01*
X159583266Y-98647116D01*
X159585965Y-98651520D01*
X159677198Y-98800399D01*
X159699987Y-98837588D01*
X159846250Y-99006438D01*
X160018126Y-99149132D01*
X160070095Y-99179500D01*
X160091445Y-99191976D01*
X160140169Y-99243614D01*
X160153240Y-99313397D01*
X160126509Y-99379169D01*
X160086055Y-99412527D01*
X160073607Y-99419007D01*
X160069474Y-99422110D01*
X160069471Y-99422112D01*
X159899100Y-99550030D01*
X159894965Y-99553135D01*
X159740629Y-99714638D01*
X159614743Y-99899180D01*
X159520688Y-100101805D01*
X159460989Y-100317070D01*
X159437251Y-100539195D01*
X159437548Y-100544348D01*
X159437548Y-100544351D01*
X159443011Y-100639090D01*
X159450110Y-100762215D01*
X159451247Y-100767261D01*
X159451248Y-100767267D01*
X159468423Y-100843475D01*
X159499222Y-100980139D01*
X159583266Y-101187116D01*
X159699987Y-101377588D01*
X159846250Y-101546438D01*
X160018126Y-101689132D01*
X160088595Y-101730311D01*
X160091445Y-101731976D01*
X160140169Y-101783614D01*
X160153240Y-101853397D01*
X160126509Y-101919169D01*
X160086055Y-101952527D01*
X160073607Y-101959007D01*
X160069474Y-101962110D01*
X160069471Y-101962112D01*
X159899100Y-102090030D01*
X159894965Y-102093135D01*
X159740629Y-102254638D01*
X159614743Y-102439180D01*
X159520688Y-102641805D01*
X159460989Y-102857070D01*
X159437251Y-103079195D01*
X159437548Y-103084348D01*
X159437548Y-103084351D01*
X159443011Y-103179090D01*
X159450110Y-103302215D01*
X159451247Y-103307261D01*
X159451248Y-103307267D01*
X159468423Y-103383475D01*
X159499222Y-103520139D01*
X159537461Y-103614311D01*
X159570747Y-103696284D01*
X159583266Y-103727116D01*
X159699987Y-103917588D01*
X159846250Y-104086438D01*
X160018126Y-104229132D01*
X160088595Y-104270311D01*
X160091445Y-104271976D01*
X160140169Y-104323614D01*
X160153240Y-104393397D01*
X160126509Y-104459169D01*
X160086055Y-104492527D01*
X160073607Y-104499007D01*
X160069474Y-104502110D01*
X160069471Y-104502112D01*
X160045247Y-104520300D01*
X159894965Y-104633135D01*
X159740629Y-104794638D01*
X159614743Y-104979180D01*
X159520688Y-105181805D01*
X159460989Y-105397070D01*
X159437251Y-105619195D01*
X159437548Y-105624348D01*
X159437548Y-105624351D01*
X159443011Y-105719090D01*
X159450110Y-105842215D01*
X159451247Y-105847261D01*
X159451248Y-105847267D01*
X159471119Y-105935439D01*
X159499222Y-106060139D01*
X159583266Y-106267116D01*
X159699987Y-106457588D01*
X159846250Y-106626438D01*
X160018126Y-106769132D01*
X160088595Y-106810311D01*
X160091445Y-106811976D01*
X160140169Y-106863614D01*
X160153240Y-106933397D01*
X160126509Y-106999169D01*
X160086055Y-107032527D01*
X160073607Y-107039007D01*
X160069474Y-107042110D01*
X160069471Y-107042112D01*
X160045247Y-107060300D01*
X159894965Y-107173135D01*
X159740629Y-107334638D01*
X159614743Y-107519180D01*
X159520688Y-107721805D01*
X159460989Y-107937070D01*
X159437251Y-108159195D01*
X159437548Y-108164348D01*
X159437548Y-108164351D01*
X159443011Y-108259090D01*
X159450110Y-108382215D01*
X159451247Y-108387261D01*
X159451248Y-108387267D01*
X159471119Y-108475439D01*
X159499222Y-108600139D01*
X159583266Y-108807116D01*
X159699987Y-108997588D01*
X159846250Y-109166438D01*
X160018126Y-109309132D01*
X160211000Y-109421838D01*
X160215825Y-109423680D01*
X160215826Y-109423681D01*
X160278961Y-109447790D01*
X160335464Y-109490778D01*
X160359757Y-109557489D01*
X160344127Y-109626744D01*
X160293535Y-109676554D01*
X160234012Y-109691500D01*
X146058725Y-109691500D01*
X146038457Y-109689859D01*
X146017025Y-109686366D01*
X146007782Y-109687508D01*
X145977533Y-109687586D01*
X145913630Y-109680025D01*
X145886525Y-109673724D01*
X145807530Y-109645858D01*
X145782466Y-109633756D01*
X145711525Y-109589231D01*
X145689729Y-109571922D01*
X145630294Y-109512908D01*
X145612830Y-109491235D01*
X145567802Y-109420613D01*
X145555521Y-109395632D01*
X145527098Y-109316845D01*
X145520602Y-109289781D01*
X145513426Y-109232615D01*
X145513543Y-109216846D01*
X145512490Y-109216848D01*
X145512473Y-109207873D01*
X145513728Y-109198983D01*
X145509808Y-109171991D01*
X145508500Y-109153882D01*
X145508500Y-103383475D01*
X146327601Y-103383475D01*
X146356552Y-103484441D01*
X146361067Y-103495845D01*
X146445794Y-103660707D01*
X146452435Y-103671012D01*
X146567568Y-103816272D01*
X146576091Y-103825098D01*
X146717245Y-103945230D01*
X146727317Y-103952230D01*
X146889116Y-104042656D01*
X146900356Y-104047567D01*
X147028768Y-104089290D01*
X147042867Y-104089693D01*
X147046000Y-104083321D01*
X147046000Y-103389615D01*
X147041525Y-103374376D01*
X147040135Y-103373171D01*
X147032452Y-103371500D01*
X146342282Y-103371500D01*
X146328751Y-103375473D01*
X146327601Y-103383475D01*
X145508500Y-103383475D01*
X145508500Y-101833351D01*
X146286719Y-101833351D01*
X146303268Y-102030434D01*
X146304967Y-102036358D01*
X146326757Y-102112348D01*
X146357783Y-102220550D01*
X146448187Y-102396456D01*
X146454164Y-102403997D01*
X146454843Y-102405674D01*
X146455353Y-102406466D01*
X146455203Y-102406563D01*
X146480802Y-102469804D01*
X146467633Y-102539569D01*
X146464254Y-102545254D01*
X146464262Y-102545258D01*
X146371998Y-102713085D01*
X146367166Y-102724358D01*
X146328506Y-102846231D01*
X146328202Y-102860331D01*
X146334763Y-102863500D01*
X147428000Y-102863500D01*
X147496121Y-102883502D01*
X147542614Y-102937158D01*
X147554000Y-102989500D01*
X147554000Y-104075064D01*
X147557973Y-104088595D01*
X147566188Y-104089776D01*
X147660337Y-104063489D01*
X147671787Y-104059048D01*
X147837226Y-103975479D01*
X147847588Y-103968903D01*
X147856074Y-103962273D01*
X147922068Y-103936095D01*
X147995117Y-103951574D01*
X148164294Y-104046124D01*
X148352392Y-104107240D01*
X148548777Y-104130658D01*
X148554912Y-104130186D01*
X148554914Y-104130186D01*
X148739830Y-104115957D01*
X148739834Y-104115956D01*
X148745972Y-104115484D01*
X148936463Y-104062298D01*
X148941967Y-104059518D01*
X148941969Y-104059517D01*
X149107495Y-103975904D01*
X149107497Y-103975903D01*
X149112996Y-103973125D01*
X149268847Y-103851361D01*
X149398078Y-103701645D01*
X149495769Y-103529679D01*
X149558197Y-103342013D01*
X149582985Y-103145795D01*
X149583380Y-103117500D01*
X149564080Y-102920667D01*
X149545864Y-102860331D01*
X149508697Y-102737231D01*
X149506916Y-102731331D01*
X149414066Y-102556704D01*
X149410167Y-102551924D01*
X149409715Y-102551243D01*
X149388676Y-102483435D01*
X149405105Y-102419275D01*
X149413786Y-102403995D01*
X149425357Y-102383625D01*
X149492723Y-102265042D01*
X149492725Y-102265037D01*
X149495769Y-102259679D01*
X149558197Y-102072013D01*
X149582985Y-101875795D01*
X149583380Y-101847500D01*
X149564080Y-101650667D01*
X149506916Y-101461331D01*
X149414066Y-101286704D01*
X149410167Y-101281924D01*
X149409715Y-101281243D01*
X149388676Y-101213435D01*
X149405105Y-101149275D01*
X149414266Y-101133150D01*
X149447691Y-101074311D01*
X149492723Y-100995042D01*
X149492725Y-100995037D01*
X149495769Y-100989679D01*
X149558197Y-100802013D01*
X149582985Y-100605795D01*
X149583380Y-100577500D01*
X149564080Y-100380667D01*
X149545864Y-100320331D01*
X149508697Y-100197231D01*
X149506916Y-100191331D01*
X149414066Y-100016704D01*
X149410167Y-100011924D01*
X149409715Y-100011243D01*
X149388676Y-99943435D01*
X149405105Y-99879275D01*
X149492723Y-99725042D01*
X149492725Y-99725037D01*
X149495769Y-99719679D01*
X149558197Y-99532013D01*
X149582985Y-99335795D01*
X149583380Y-99307500D01*
X149564080Y-99110667D01*
X149545864Y-99050331D01*
X149508697Y-98927231D01*
X149506916Y-98921331D01*
X149414066Y-98746704D01*
X149410167Y-98741924D01*
X149409715Y-98741243D01*
X149388676Y-98673435D01*
X149405105Y-98609275D01*
X149492723Y-98455042D01*
X149492725Y-98455037D01*
X149495769Y-98449679D01*
X149558197Y-98262013D01*
X149582985Y-98065795D01*
X149583380Y-98037500D01*
X149564080Y-97840667D01*
X149506916Y-97651331D01*
X149414066Y-97476704D01*
X149314726Y-97354901D01*
X149292960Y-97328213D01*
X149292957Y-97328210D01*
X149289065Y-97323438D01*
X149259770Y-97299203D01*
X149141425Y-97201299D01*
X149141421Y-97201297D01*
X149136675Y-97197370D01*
X148962701Y-97103302D01*
X148773768Y-97044818D01*
X148767643Y-97044174D01*
X148767642Y-97044174D01*
X148583204Y-97024789D01*
X148583202Y-97024789D01*
X148577075Y-97024145D01*
X148494576Y-97031653D01*
X148386251Y-97041511D01*
X148386248Y-97041512D01*
X148380112Y-97042070D01*
X148374206Y-97043808D01*
X148374202Y-97043809D01*
X148238551Y-97083733D01*
X148190381Y-97097910D01*
X148184797Y-97100829D01*
X148184727Y-97100843D01*
X148179209Y-97103073D01*
X148178785Y-97102024D01*
X148115164Y-97114665D01*
X148062846Y-97094596D01*
X148061760Y-97096579D01*
X148053892Y-97092271D01*
X148046705Y-97086885D01*
X147910316Y-97035755D01*
X147848134Y-97029000D01*
X146751866Y-97029000D01*
X146689684Y-97035755D01*
X146553295Y-97086885D01*
X146436739Y-97174239D01*
X146349385Y-97290795D01*
X146298255Y-97427184D01*
X146291500Y-97489366D01*
X146291500Y-98585634D01*
X146298255Y-98647816D01*
X146349385Y-98784205D01*
X146354766Y-98791385D01*
X146359079Y-98799263D01*
X146357004Y-98800399D01*
X146377362Y-98854887D01*
X146368389Y-98908282D01*
X146369029Y-98908485D01*
X146367595Y-98913005D01*
X146367497Y-98913589D01*
X146367162Y-98914370D01*
X146328506Y-99036231D01*
X146328202Y-99050331D01*
X146334763Y-99053500D01*
X147428000Y-99053500D01*
X147496121Y-99073502D01*
X147542614Y-99127158D01*
X147554000Y-99179500D01*
X147554000Y-100705500D01*
X147533998Y-100773621D01*
X147480342Y-100820114D01*
X147428000Y-100831500D01*
X146342282Y-100831500D01*
X146328751Y-100835473D01*
X146327601Y-100843475D01*
X146356552Y-100944441D01*
X146361067Y-100955845D01*
X146445794Y-101120707D01*
X146452432Y-101131007D01*
X146454131Y-101133150D01*
X146454667Y-101134475D01*
X146455774Y-101136192D01*
X146455448Y-101136402D01*
X146480770Y-101198960D01*
X146467600Y-101268724D01*
X146463979Y-101274816D01*
X146463846Y-101274974D01*
X146463370Y-101275841D01*
X146463364Y-101275850D01*
X146457397Y-101286704D01*
X146368567Y-101448287D01*
X146366706Y-101454154D01*
X146366705Y-101454156D01*
X146336384Y-101549740D01*
X146308765Y-101636806D01*
X146286719Y-101833351D01*
X145508500Y-101833351D01*
X145508500Y-99573475D01*
X146327601Y-99573475D01*
X146356552Y-99674441D01*
X146361067Y-99685845D01*
X146445794Y-99850707D01*
X146452435Y-99861011D01*
X146454460Y-99863566D01*
X146455099Y-99865145D01*
X146455774Y-99866192D01*
X146455575Y-99866320D01*
X146481098Y-99929375D01*
X146467928Y-99999140D01*
X146463907Y-100005903D01*
X146371998Y-100173085D01*
X146367166Y-100184358D01*
X146328506Y-100306231D01*
X146328202Y-100320331D01*
X146334763Y-100323500D01*
X147027885Y-100323500D01*
X147043124Y-100319025D01*
X147044329Y-100317635D01*
X147046000Y-100309952D01*
X147046000Y-99579615D01*
X147041525Y-99564376D01*
X147040135Y-99563171D01*
X147032452Y-99561500D01*
X146342282Y-99561500D01*
X146328751Y-99565473D01*
X146327601Y-99573475D01*
X145508500Y-99573475D01*
X145508500Y-92053250D01*
X145510246Y-92032345D01*
X145512770Y-92017344D01*
X145512770Y-92017341D01*
X145513576Y-92012552D01*
X145513729Y-92000000D01*
X145513040Y-91995188D01*
X145512723Y-91990327D01*
X145513008Y-91990308D01*
X145512607Y-91963549D01*
X145519234Y-91904736D01*
X145525513Y-91877229D01*
X145552485Y-91800147D01*
X145564727Y-91774726D01*
X145608178Y-91705574D01*
X145625770Y-91683515D01*
X145683515Y-91625770D01*
X145705574Y-91608178D01*
X145774726Y-91564727D01*
X145800147Y-91552485D01*
X145877228Y-91525513D01*
X145904736Y-91519234D01*
X145960226Y-91512982D01*
X145975868Y-91513077D01*
X145975879Y-91512200D01*
X145984851Y-91512310D01*
X145993724Y-91513691D01*
X146002626Y-91512527D01*
X146002628Y-91512527D01*
X146017951Y-91510523D01*
X146025286Y-91509564D01*
X146041621Y-91508500D01*
X159516395Y-91508500D01*
X159584516Y-91528502D01*
G37*
%TD.AperFunction*%
%TD*%
M02*
